<svg id="Calque_1" data-name="Calque 1" xmlns="http://www.w3.org/2000/svg" viewBox="0 0 374.2 169.43"><defs><style>.cls-1,.cls-5{fill:none;}.cls-1{stroke:#fac903;}.cls-1,.cls-4,.cls-5{stroke-miterlimit:10;}.cls-2{fill:#136494;}.cls-3,.cls-4{fill:#fff;}.cls-4{stroke:#a90505;}.cls-5{stroke:#fff;}</style></defs><title>dimby</title><path class="cls-1" d="M57,30.64A25.74,25.74,0,0,0,45.7,20.51,40.58,40.58,0,0,0,28,17H4.8V76.06H28q10.29,0,17.68-3.55A25.58,25.58,0,0,0,57,62.34a30.48,30.48,0,0,0,3.93-15.83A30.42,30.42,0,0,0,57,30.64ZM40.21,53.77a9.65,9.65,0,0,1-3.41,4,12.29,12.29,0,0,1-4.65,1.78,30.44,30.44,0,0,1-5,.42h-3V33h3a30.44,30.44,0,0,1,5,.42A12.28,12.28,0,0,1,36.8,35.2a9.65,9.65,0,0,1,3.41,4,16.71,16.71,0,0,1,1.31,7.26A16.71,16.71,0,0,1,40.21,53.77Z"/><path class="cls-1" d="M96.81,17V76.06h-19V17Z"/><path class="cls-1" d="M133.53,76.06H113.69l11-62,26.17,31.91L177,14l11,62H168.14l-3-24.14L150.84,70.57,136.57,51.92Z"/><path class="cls-1" d="M254.79,51.79a17.63,17.63,0,0,0-5.86-5.45,25.65,25.65,0,0,0-3.5-1.69,17.13,17.13,0,0,0,5.19-4,12.55,12.55,0,0,0,3-8.49,12.18,12.18,0,0,0-3-8.44,18.46,18.46,0,0,0-8.23-5.06A37.94,37.94,0,0,0,230.61,17H204.86V76.06H232.3a48.52,48.52,0,0,0,13.38-1.61,16.42,16.42,0,0,0,8.44-5.15Q257,65.76,257,59.85A14.14,14.14,0,0,0,254.79,51.79ZM223.43,30.9h4.65A8.18,8.18,0,0,1,232.76,32a3.82,3.82,0,0,1,1.48,3.34,4.88,4.88,0,0,1-.68,2.61,4.31,4.31,0,0,1-2,1.69,8.6,8.6,0,0,1-3.46.59h-4.65Zm13.09,29.46a5.33,5.33,0,0,1-2.87,1.43,20.38,20.38,0,0,1-3.88.34h-6.34V52.42h6.34a25.51,25.51,0,0,1,3,.17,9.08,9.08,0,0,1,2.49.63,3.66,3.66,0,0,1,2.37,3.68A4.74,4.74,0,0,1,236.52,60.36Z"/><path class="cls-1" d="M327.51,17,306.24,52.85V76.06h-19V53L265.89,17h21.53l9.28,19.08L306,17Z"/><path class="cls-2" d="M137.45,92.79a2.77,2.77,0,0,1,1.05-1.07,2.87,2.87,0,0,1,1.45-.37,2.24,2.24,0,0,1,1.34.4,2.8,2.8,0,0,1,.87,1.12,4.14,4.14,0,0,1,0,3.19,2.8,2.8,0,0,1-.87,1.12,2.24,2.24,0,0,1-1.34.41,2.88,2.88,0,0,1-1.45-.38,2.73,2.73,0,0,1-1.05-1.08,3.37,3.37,0,0,1-.39-1.66A3.42,3.42,0,0,1,137.45,92.79Zm.61,3a2.09,2.09,0,0,0,.83.86A2.37,2.37,0,0,0,140,97a1.86,1.86,0,0,0,1.05-.33,2.39,2.39,0,0,0,.78-.88,2.86,2.86,0,0,0,0-2.55,2.39,2.39,0,0,0-.78-.88A1.86,1.86,0,0,0,140,92a2.27,2.27,0,0,0-1.15.3,2,2,0,0,0-.83.85,2.68,2.68,0,0,0-.31,1.34A2.64,2.64,0,0,0,138.06,95.8Zm4.79-8.48V97.46h-.68V87.32Z"/><path class="cls-2" d="M145.63,88.43a.48.48,0,0,1,.34-.14.48.48,0,0,1,.48.48.49.49,0,0,1-.14.34.46.46,0,0,1-.34.14.48.48,0,0,1-.34-.14.45.45,0,0,1-.14-.34A.42.42,0,0,1,145.63,88.43Zm.68,3v6h-.68v-6Z"/><path class="cls-2" d="M156.77,97.46h-.68V93.61a2.13,2.13,0,0,0-.29-1.2,1,1,0,0,0-.93-.43,1.42,1.42,0,0,0-.8.24,1.56,1.56,0,0,0-.56.65,2,2,0,0,0-.21.95v3.64h-.68V93.61a2,2,0,0,0-.3-1.2,1,1,0,0,0-.92-.43,1.42,1.42,0,0,0-.8.24,1.49,1.49,0,0,0-.56.65,2,2,0,0,0-.21.95v3.64h-.68v-6h.68v1.2a2,2,0,0,1,.69-1,1.61,1.61,0,0,1,1-.35,1.51,1.51,0,0,1,1.06.37,1.77,1.77,0,0,1,.56,1,2.32,2.32,0,0,1,.76-1,1.8,1.8,0,0,1,1.09-.36,1.63,1.63,0,0,1,.95.26,1.6,1.6,0,0,1,.59.75,3.18,3.18,0,0,1,.2,1.17Z"/><path class="cls-2" d="M160.09,97.46h-.68V87.32h.68Zm4.72-1.33a2.71,2.71,0,0,1-1,1.08,2.89,2.89,0,0,1-1.46.38,2.26,2.26,0,0,1-1.33-.41,2.76,2.76,0,0,1-.89-1.12,4.14,4.14,0,0,1,0-3.19,2.76,2.76,0,0,1,.89-1.12,2.25,2.25,0,0,1,1.33-.4,2.88,2.88,0,0,1,1.46.37,2.75,2.75,0,0,1,1,1.07,3.42,3.42,0,0,1,.38,1.68A3.36,3.36,0,0,1,164.81,96.13Zm-.6-3a2.08,2.08,0,0,0-.84-.85,2.24,2.24,0,0,0-1.15-.3,1.83,1.83,0,0,0-1,.33,2.35,2.35,0,0,0-.8.88,2.95,2.95,0,0,0,0,2.55,2.35,2.35,0,0,0,.8.88,1.83,1.83,0,0,0,1,.33,2.34,2.34,0,0,0,1.15-.29,2.17,2.17,0,0,0,.84-.86,2.75,2.75,0,0,0,.31-1.33A2.79,2.79,0,0,0,164.21,93.13Z"/><path class="cls-2" d="M167.85,100.32h-.76l1.54-3.48-2.42-5.36h.8l2.17,5.09-.31,0L171,91.48h.76Z"/><path class="cls-2" d="M174.15,97.46h-.68v-6h.68Zm1.62-5.41a1.25,1.25,0,0,0-.41-.07,1,1,0,0,0-.71.25,1.34,1.34,0,0,0-.38.66,3.38,3.38,0,0,0-.12.93h-.31a3.35,3.35,0,0,1,.22-1.27,2.29,2.29,0,0,1,.6-.88,1.28,1.28,0,0,1,.86-.32,1.61,1.61,0,0,1,.54.08,1.39,1.39,0,0,1,.46.28l-.38.56A1.63,1.63,0,0,0,175.77,92.05Z"/><path class="cls-2" d="M178.62,96.4a1.2,1.2,0,0,0,.54.45,1.91,1.91,0,0,0,.76.15,1.94,1.94,0,0,0,.93-.23,1.8,1.8,0,0,0,.68-.69A2.19,2.19,0,0,0,181.8,95l.15.57a1.86,1.86,0,0,1-.34,1.16,2,2,0,0,1-.84.67,2.53,2.53,0,0,1-1,.23,2.33,2.33,0,0,1-1-.22,1.74,1.74,0,0,1-.76-.63,1.83,1.83,0,0,1-.28-1,1.72,1.72,0,0,1,.6-1.38A2.46,2.46,0,0,1,180,93.8a3.34,3.34,0,0,1,1.71.44,2.79,2.79,0,0,1,.39.29V95a3.28,3.28,0,0,0-.94-.46,3.7,3.7,0,0,0-1-.15,2.58,2.58,0,0,0-.88.14,1.29,1.29,0,0,0-.58.43,1.22,1.22,0,0,0-.21.74A1.24,1.24,0,0,0,178.62,96.4Zm-.52-4.34a6.29,6.29,0,0,1,.88-.47,3.26,3.26,0,0,1,1.33-.24,2.73,2.73,0,0,1,1.16.22,1.64,1.64,0,0,1,.74.63,1.93,1.93,0,0,1,.26,1v4.24h-.67V93.31a1.69,1.69,0,0,0-.08-.5,1.31,1.31,0,0,0-.26-.44,1.17,1.17,0,0,0-.47-.31,2,2,0,0,0-.73-.12,2.74,2.74,0,0,0-.79.11,3.23,3.23,0,0,0-.61.24,3.38,3.38,0,0,0-.42.28Z"/><path class="cls-2" d="M185.32,96.35a1.64,1.64,0,0,0,.56.44,1.74,1.74,0,0,0,.82.17,1.28,1.28,0,0,0,.87-.28.94.94,0,0,0,.33-.77.9.9,0,0,0-.2-.61,1.66,1.66,0,0,0-.55-.4,6.17,6.17,0,0,0-.73-.29c-.27-.11-.54-.22-.8-.35a1.88,1.88,0,0,1-.65-.53A1.59,1.59,0,0,1,185,92a1.54,1.54,0,0,1,.67-.5,2.28,2.28,0,0,1,.87-.16,2.29,2.29,0,0,1,1.6.61,2,2,0,0,1,.44.61l-.55.34a2.12,2.12,0,0,0-.59-.68,1.57,1.57,0,0,0-1-.28,1.21,1.21,0,0,0-.75.22.73.73,0,0,0-.31.65.89.89,0,0,0,.2.58,1.47,1.47,0,0,0,.52.37l.69.27a9.16,9.16,0,0,1,.89.4,2.11,2.11,0,0,1,.66.55,1.3,1.3,0,0,1,.25.83,1.64,1.64,0,0,1-.54,1.27,2,2,0,0,1-1.39.49,2.47,2.47,0,0,1-1.09-.23,1.93,1.93,0,0,1-.74-.57,2.31,2.31,0,0,1-.41-.73l.55-.31A2,2,0,0,0,185.32,96.35Z"/><path class="cls-2" d="M190.75,92.85a3,3,0,0,1,2.67-1.5,3,3,0,0,1,1.56.4,3,3,0,0,1,1.1,1.1,3.37,3.37,0,0,1,0,3.22,2.93,2.93,0,0,1-1.1,1.11,3,3,0,0,1-1.56.41,3.06,3.06,0,0,1-1.57-.41,3,3,0,0,1-1.1-1.11,3.44,3.44,0,0,1,0-3.22Zm.6,2.9a2.25,2.25,0,0,0,.85.88,2.39,2.39,0,0,0,1.22.32,2.35,2.35,0,0,0,1.21-.32,2.18,2.18,0,0,0,.85-.88,2.72,2.72,0,0,0,0-2.56,2.21,2.21,0,0,0-.85-.89,2.35,2.35,0,0,0-1.21-.32,2.48,2.48,0,0,0-1.22.31,2.25,2.25,0,0,0-.85.88,2.63,2.63,0,0,0-.31,1.3A2.55,2.55,0,0,0,191.35,95.75Z"/><path class="cls-2" d="M199.34,87.32V97.46h-.67V87.32Z"/><path class="cls-2" d="M201.93,92.85a3,3,0,0,1,2.67-1.5,3,3,0,0,1,1.56.4,3,3,0,0,1,1.1,1.1,3.44,3.44,0,0,1,0,3.22,2.93,2.93,0,0,1-1.1,1.11,3,3,0,0,1-1.56.41,3.06,3.06,0,0,1-1.57-.41,3,3,0,0,1-1.1-1.11,3.44,3.44,0,0,1,0-3.22Zm.6,2.9a2.25,2.25,0,0,0,.85.88,2.39,2.39,0,0,0,1.22.32,2.35,2.35,0,0,0,1.21-.32,2.18,2.18,0,0,0,.85-.88,2.72,2.72,0,0,0,0-2.56,2.21,2.21,0,0,0-.85-.89A2.35,2.35,0,0,0,204.6,92a2.48,2.48,0,0,0-1.22.31,2.25,2.25,0,0,0-.85.88,2.63,2.63,0,0,0-.31,1.3A2.55,2.55,0,0,0,202.53,95.75Z"/><path class="cls-2" d="M213.35,92.41a1.31,1.31,0,0,0-1.07-.43,1.7,1.7,0,0,0-1.53.9,2,2,0,0,0-.23.94v3.64h-.67v-6h.67v1.24a2.23,2.23,0,0,1,.75-1,2,2,0,0,1,1.17-.36,1.75,1.75,0,0,1,1.43.59,2.44,2.44,0,0,1,.49,1.59v3.93h-.68V93.61A1.94,1.94,0,0,0,213.35,92.41Z"/><path class="cls-2" d="M217.21,88.43a.45.45,0,0,1,.33-.14.48.48,0,0,1,.35.14.46.46,0,0,1,.14.34.49.49,0,0,1-.14.34.48.48,0,0,1-.35.14.45.45,0,0,1-.33-.14.46.46,0,0,1-.15-.34A.43.43,0,0,1,217.21,88.43Zm.67,3v6h-.67v-6Z"/><path class="cls-2" d="M221.41,97.46h-.68v-6h.68ZM223,92.05a1.21,1.21,0,0,0-.41-.07,1,1,0,0,0-.7.25,1.36,1.36,0,0,0-.39.66,3.39,3.39,0,0,0-.11.93h-.32a3.55,3.55,0,0,1,.22-1.27,2.2,2.2,0,0,1,.61-.88,1.25,1.25,0,0,1,.85-.32,1.61,1.61,0,0,1,.54.08,1.3,1.3,0,0,1,.46.28l-.38.56A1.63,1.63,0,0,0,223,92.05Z"/><path class="cls-2" d="M225.71,88.43a.48.48,0,0,1,.68,0,.46.46,0,0,1,.14.34.49.49,0,0,1-.14.34.48.48,0,0,1-.68,0,.45.45,0,0,1-.14-.34A.42.42,0,0,1,225.71,88.43Zm.67,3v6h-.67v-6Z"/><path class="cls-2" d="M232.73,92.41a1.3,1.3,0,0,0-1.07-.43,1.68,1.68,0,0,0-.9.24,1.74,1.74,0,0,0-.63.66,2,2,0,0,0-.22.94v3.64h-.68v-6h.68v1.24a2.14,2.14,0,0,1,.74-1,2,2,0,0,1,1.17-.36,1.75,1.75,0,0,1,1.43.59,2.38,2.38,0,0,1,.49,1.59v3.93h-.67V93.61A1.94,1.94,0,0,0,232.73,92.41Z"/><path class="cls-2" d="M236.75,96.4a1.28,1.28,0,0,0,.55.45,1.87,1.87,0,0,0,.76.15,1.94,1.94,0,0,0,.93-.23,1.8,1.8,0,0,0,.68-.69,2.29,2.29,0,0,0,.26-1.12l.16.57a1.92,1.92,0,0,1-.34,1.16,2.05,2.05,0,0,1-.85.67,2.52,2.52,0,0,1-1,.23,2.38,2.38,0,0,1-1-.22,1.77,1.77,0,0,1-.75-.63,1.83,1.83,0,0,1-.29-1,1.7,1.7,0,0,1,.61-1.38,2.46,2.46,0,0,1,1.64-.51,3.33,3.33,0,0,1,1,.14,3.23,3.23,0,0,1,.69.3,2.79,2.79,0,0,1,.39.29V95a3.16,3.16,0,0,0-.94-.46,3.6,3.6,0,0,0-1-.15,2.52,2.52,0,0,0-.87.14,1.29,1.29,0,0,0-.58.43,1.22,1.22,0,0,0-.21.74A1.32,1.32,0,0,0,236.75,96.4Zm-.51-4.34a6.11,6.11,0,0,1,.87-.47,3.31,3.31,0,0,1,1.34-.24,2.68,2.68,0,0,1,1.15.22,1.72,1.72,0,0,1,.75.63,1.93,1.93,0,0,1,.26,1v4.24h-.68V93.31a1.69,1.69,0,0,0-.08-.5,1.14,1.14,0,0,0-.25-.44,1.29,1.29,0,0,0-.48-.31,1.94,1.94,0,0,0-.72-.12,2.81,2.81,0,0,0-.8.11,2.78,2.78,0,0,0-1,.52Z"/><path class="cls-2" d="M242.9,91.31a4.68,4.68,0,0,1,2.59-2.69,5.15,5.15,0,0,1,2-.38,4.35,4.35,0,0,1,1.8.35,3.78,3.78,0,0,1,1.3.94,4.22,4.22,0,0,1,.8,1.33,4.73,4.73,0,0,1,.26,1.53,4,4,0,0,1-.22,1.42,2.83,2.83,0,0,1-.58,1,2.3,2.3,0,0,1-.76.55,2,2,0,0,1-.76.17,1.09,1.09,0,0,1-.67-.21,1.11,1.11,0,0,1-.38-.59,2.12,2.12,0,0,1-.05-.85h-.06l.49-3.14h.65l-.53,3s0,.1,0,.19,0,.15,0,.2a1.73,1.73,0,0,0,0,.38.59.59,0,0,0,.19.32.56.56,0,0,0,.41.13,1.26,1.26,0,0,0,.7-.27,2.14,2.14,0,0,0,.67-.83,3.13,3.13,0,0,0,.29-1.43,4,4,0,0,0-.23-1.33,3.53,3.53,0,0,0-.68-1.15A3.2,3.2,0,0,0,249,89.1a3.71,3.71,0,0,0-1.54-.3,4.4,4.4,0,0,0-1.77.34,4.16,4.16,0,0,0-1.37,1,4.33,4.33,0,0,0-.89,1.42,5.17,5.17,0,0,0-.31,1.79,4.24,4.24,0,0,0,.44,2,3.19,3.19,0,0,0,1.26,1.29,4,4,0,0,0,1.94.45,6.66,6.66,0,0,0,1.54-.17,4.57,4.57,0,0,0,1.28-.54l.31.51a7.35,7.35,0,0,1-1.3.54,6.18,6.18,0,0,1-1.83.22,4.7,4.7,0,0,1-2.31-.52,3.45,3.45,0,0,1-1.43-1.5,4.88,4.88,0,0,1-.5-2.25A5.38,5.38,0,0,1,242.9,91.31Zm2.1.5a2.51,2.51,0,0,1,.91-.92,2.15,2.15,0,0,1,1.09-.31,1.38,1.38,0,0,1,.89.29,1.86,1.86,0,0,1,.53.77,2.8,2.8,0,0,1,.18,1,3.23,3.23,0,0,1-.3,1.43,2.4,2.4,0,0,1-.8.94,1.86,1.86,0,0,1-1.08.33,1.72,1.72,0,0,1-.89-.24,1.77,1.77,0,0,1-.65-.7,2.35,2.35,0,0,1-.24-1.1A2.89,2.89,0,0,1,245,91.81Zm.63,2.55a1.18,1.18,0,0,0,.93.39,1.52,1.52,0,0,0,.81-.24,1.85,1.85,0,0,0,.64-.71,2.36,2.36,0,0,0,.25-1.15,1.65,1.65,0,0,0-.16-.75,1.44,1.44,0,0,0-.44-.53,1.14,1.14,0,0,0-.66-.19,1.52,1.52,0,0,0-.81.24,1.86,1.86,0,0,0-.65.73,2.38,2.38,0,0,0-.25,1.15A1.57,1.57,0,0,0,245.63,94.36Z"/><path class="cls-2" d="M253.64,92.79a2.77,2.77,0,0,1,1.05-1.07,2.87,2.87,0,0,1,1.45-.37,2.22,2.22,0,0,1,1.34.4,2.92,2.92,0,0,1,.88,1.12,4.14,4.14,0,0,1,0,3.19,2.92,2.92,0,0,1-.88,1.12,2.22,2.22,0,0,1-1.34.41,2.88,2.88,0,0,1-1.45-.38,2.73,2.73,0,0,1-1.05-1.08,3.37,3.37,0,0,1-.39-1.66A3.42,3.42,0,0,1,253.64,92.79Zm.45,5.06a1.88,1.88,0,0,0,1,1.7,2.29,2.29,0,0,0,1.1.26,2.27,2.27,0,0,0,1.05-.26,2.19,2.19,0,0,0,.82-.81,2.83,2.83,0,0,0,.31-1.41V91.48H259v5.85a3.39,3.39,0,0,1-.4,1.72,2.65,2.65,0,0,1-1.06,1,2.83,2.83,0,0,1-1.4.36,3.07,3.07,0,0,1-1.45-.33,2.35,2.35,0,0,1-1-.92,2.52,2.52,0,0,1-.35-1.35Zm.16-2a2.09,2.09,0,0,0,.83.86,2.39,2.39,0,0,0,1.15.29,1.86,1.86,0,0,0,1-.33,2.26,2.26,0,0,0,.78-.89,2.7,2.7,0,0,0,.3-1.29,2.49,2.49,0,0,0-.17-1,2.36,2.36,0,0,0-.47-.78,2.2,2.2,0,0,0-.69-.53,1.85,1.85,0,0,0-.8-.19,2.3,2.3,0,0,0-1.15.3,2,2,0,0,0-.83.85,2.79,2.79,0,0,0-.31,1.34A2.75,2.75,0,0,0,254.25,95.8Z"/><path class="cls-2" d="M269.3,97.46h-.68V93.61a2,2,0,0,0-.3-1.2,1,1,0,0,0-.92-.43,1.4,1.4,0,0,0-.8.24,1.58,1.58,0,0,0-.57.65,2,2,0,0,0-.2.95v3.64h-.68V93.61a2,2,0,0,0-.3-1.2,1,1,0,0,0-.92-.43,1.4,1.4,0,0,0-.8.24,1.58,1.58,0,0,0-.57.65,2,2,0,0,0-.21.95v3.64h-.67v-6h.67v1.2a2.18,2.18,0,0,1,.69-1,1.63,1.63,0,0,1,1-.35,1.53,1.53,0,0,1,1.07.37,1.83,1.83,0,0,1,.56,1,2.23,2.23,0,0,1,.75-1,1.83,1.83,0,0,1,1.09-.36,1.61,1.61,0,0,1,.95.26,1.55,1.55,0,0,1,.59.75,3,3,0,0,1,.21,1.17Z"/><path class="cls-2" d="M272.31,96.4a1.2,1.2,0,0,0,.54.45,1.87,1.87,0,0,0,.76.15,1.94,1.94,0,0,0,.93-.23,1.8,1.8,0,0,0,.68-.69,2.18,2.18,0,0,0,.26-1.12l.16.57a1.86,1.86,0,0,1-.34,1.16,2,2,0,0,1-.84.67,2.53,2.53,0,0,1-1,.23,2.33,2.33,0,0,1-1-.22,1.74,1.74,0,0,1-.76-.63,1.83,1.83,0,0,1-.28-1,1.72,1.72,0,0,1,.6-1.38,2.46,2.46,0,0,1,1.64-.51,3.34,3.34,0,0,1,1.71.44,2.79,2.79,0,0,1,.39.29V95a3.21,3.21,0,0,0-.95-.46,3.58,3.58,0,0,0-1-.15,2.58,2.58,0,0,0-.88.14,1.29,1.29,0,0,0-.58.43,1.22,1.22,0,0,0-.21.74A1.24,1.24,0,0,0,272.31,96.4Zm-.52-4.34a6.29,6.29,0,0,1,.88-.47,3.26,3.26,0,0,1,1.33-.24,2.73,2.73,0,0,1,1.16.22,1.64,1.64,0,0,1,.74.63,1.93,1.93,0,0,1,.26,1v4.24h-.68V93.31a1.68,1.68,0,0,0-.07-.5,1.31,1.31,0,0,0-.26-.44,1.17,1.17,0,0,0-.47-.31,2,2,0,0,0-.73-.12,2.74,2.74,0,0,0-.79.11,3.23,3.23,0,0,0-.61.24,3.38,3.38,0,0,0-.42.28Z"/><path class="cls-2" d="M278.81,88.43a.49.49,0,0,1,.34-.14.46.46,0,0,1,.34.14.42.42,0,0,1,.14.34.45.45,0,0,1-.14.34.46.46,0,0,1-.34.14.48.48,0,0,1-.48-.48A.46.46,0,0,1,278.81,88.43Zm.68,3v6h-.68v-6Z"/><path class="cls-2" d="M283,87.32V97.46h-.67V87.32Z"/><path class="cls-2" d="M286.2,96.79a.45.45,0,0,1,.33-.14.48.48,0,0,1,.34.14.47.47,0,0,1,.15.35.48.48,0,0,1-.14.34.45.45,0,0,1-.35.14.42.42,0,0,1-.33-.14.45.45,0,0,1-.15-.34A.47.47,0,0,1,286.2,96.79Z"/><path class="cls-2" d="M290.47,95.75a2.32,2.32,0,0,0,.85.88,2.39,2.39,0,0,0,1.22.32,2.93,2.93,0,0,0,.9-.14,2.87,2.87,0,0,0,.72-.37,1.53,1.53,0,0,0,.43-.47v.85a2,2,0,0,1-.83.54,3.31,3.31,0,0,1-1.22.23,3,3,0,0,1-2.66-1.52,3.37,3.37,0,0,1,0-3.22,3.05,3.05,0,0,1,1.1-1.1,3,3,0,0,1,1.56-.4,3.3,3.3,0,0,1,1.22.22,2.25,2.25,0,0,1,.83.54V93a1.34,1.34,0,0,0-.43-.47,2.56,2.56,0,0,0-.72-.36,2.66,2.66,0,0,0-.9-.15,2.3,2.3,0,0,0-2.07,1.2,2.82,2.82,0,0,0,0,2.57Z"/><path class="cls-2" d="M296.86,92.85a3,3,0,0,1,1.09-1.1,3.1,3.1,0,0,1,4.24,1.1,3.44,3.44,0,0,1,0,3.22,3,3,0,0,1-1.1,1.11,3.21,3.21,0,0,1-3.14,0,2.91,2.91,0,0,1-1.09-1.11,3.37,3.37,0,0,1,0-3.22Zm.59,2.9a2.27,2.27,0,0,0,.86.88,2.35,2.35,0,0,0,1.21.32,2.39,2.39,0,0,0,1.22-.32,2.25,2.25,0,0,0,.85-.88,2.8,2.8,0,0,0,0-2.56,2.28,2.28,0,0,0-.85-.89,2.39,2.39,0,0,0-1.22-.32,2.45,2.45,0,0,0-1.21.31,2.27,2.27,0,0,0-.86.88,2.74,2.74,0,0,0-.31,1.3A2.66,2.66,0,0,0,297.45,95.75Z"/><path class="cls-2" d="M312.39,97.46h-.67V93.61a2.12,2.12,0,0,0-.3-1.2,1,1,0,0,0-.93-.43,1.42,1.42,0,0,0-.8.24,1.56,1.56,0,0,0-.56.65,2,2,0,0,0-.21.95v3.64h-.68V93.61a2.13,2.13,0,0,0-.29-1.2A1,1,0,0,0,307,92a1.42,1.42,0,0,0-.8.24,1.56,1.56,0,0,0-.56.65,2,2,0,0,0-.21.95v3.64h-.68v-6h.68v1.2a2,2,0,0,1,.69-1,1.61,1.61,0,0,1,1-.35,1.51,1.51,0,0,1,1.06.37,1.77,1.77,0,0,1,.56,1,2.32,2.32,0,0,1,.76-1,1.8,1.8,0,0,1,1.09-.36,1.63,1.63,0,0,1,1,.26,1.6,1.6,0,0,1,.59.75,3.18,3.18,0,0,1,.2,1.17Z"/><path class="cls-3" d="M324.57,152.4H323l1.25-9.55L328,149l3.74-6.17L333,152.4h-1.58l-.64-5.54-2.77,4.7-2.77-4.7Z"/><path class="cls-3" d="M336,151.06a.81.81,0,0,0,.39.31,1.54,1.54,0,0,0,.58.11,1.73,1.73,0,0,0,.76-.17,1.35,1.35,0,0,0,.56-.5,1.43,1.43,0,0,0,.22-.78l.2.79a1.41,1.41,0,0,1-.33,1,1.94,1.94,0,0,1-.83.57,2.75,2.75,0,0,1-1,.19,2.43,2.43,0,0,1-1-.22,1.81,1.81,0,0,1-.77-.65,1.84,1.84,0,0,1-.28-1,1.7,1.7,0,0,1,.61-1.38,2.57,2.57,0,0,1,1.73-.52,3.85,3.85,0,0,1,1,.13,3,3,0,0,1,.72.31,1.49,1.49,0,0,1,.41.32v.71a2.72,2.72,0,0,0-.86-.41,3.42,3.42,0,0,0-1-.13,1.82,1.82,0,0,0-.72.11.86.86,0,0,0-.41.3.83.83,0,0,0-.14.48A.91.91,0,0,0,336,151.06ZM334.85,147a6.63,6.63,0,0,1,1-.48,4.45,4.45,0,0,1,1.47-.23,3.53,3.53,0,0,1,1.31.22,2.11,2.11,0,0,1,.89.63,1.55,1.55,0,0,1,.32,1v4.26h-1.37v-4a1.06,1.06,0,0,0-.1-.47,1,1,0,0,0-.27-.3,1.46,1.46,0,0,0-.4-.17,2.89,2.89,0,0,0-1.29.05,3,3,0,0,0-.64.23,3.68,3.68,0,0,0-.4.23Z"/><path class="cls-3" d="M342.4,143.43a.88.88,0,0,1,.61-.25.86.86,0,0,1,.63.25.85.85,0,0,1,0,1.22.82.82,0,0,1-.63.25.84.84,0,0,1-.61-.25.82.82,0,0,1,0-1.22Zm1.3,3v6h-1.37v-6Z"/><path class="cls-3" d="M347.69,142.26V152.4h-1.4V142.26Z"/><path class="cls-3" d="M354.9,143.43a.92.92,0,0,1,.62-.25.89.89,0,0,1,.63.25.87.87,0,0,1,0,1.22.85.85,0,0,1-.63.25.88.88,0,0,1-.62-.25.85.85,0,0,1,0-1.22Zm1.31,3v6h-1.38v-6Z"/><path class="cls-3" d="M360,150.41a1.87,1.87,0,0,0,1.61.91,2.47,2.47,0,0,0,.82-.13,2.26,2.26,0,0,0,.69-.36,1.51,1.51,0,0,0,.44-.52v1.55a2.28,2.28,0,0,1-.84.49,3.68,3.68,0,0,1-1.17.18,3.37,3.37,0,0,1-1.66-.4,2.93,2.93,0,0,1-1.16-1.1,3.33,3.33,0,0,1,0-3.24,2.93,2.93,0,0,1,1.16-1.1,3.37,3.37,0,0,1,1.66-.4,3.68,3.68,0,0,1,1.17.18,2.16,2.16,0,0,1,.84.5v1.54a1.3,1.3,0,0,0-.45-.52,2.51,2.51,0,0,0-.69-.36,2.45,2.45,0,0,0-.81-.13,1.76,1.76,0,0,0-.94.25,1.8,1.8,0,0,0-.67.67,2.11,2.11,0,0,0,0,2Z"/><path class="cls-3" d="M366,143.43a.92.92,0,0,1,.62-.25.89.89,0,0,1,.63.25.87.87,0,0,1,0,1.22.85.85,0,0,1-.63.25.88.88,0,0,1-.62-.25.85.85,0,0,1,0-1.22Zm1.31,3v6h-1.38v-6Z"/><path class="cls-4" d="M61.76,25.89A25.74,25.74,0,0,0,50.45,15.76a40.58,40.58,0,0,0-17.68-3.54H9.55V71.31H32.77q10.29,0,17.68-3.55A25.58,25.58,0,0,0,61.76,57.59a30.48,30.48,0,0,0,3.93-15.83A30.42,30.42,0,0,0,61.76,25.89ZM45,49a9.65,9.65,0,0,1-3.41,4,12.29,12.29,0,0,1-4.65,1.78,30.44,30.44,0,0,1-5,.42h-3v-27h3a30.44,30.44,0,0,1,5,.42,12.28,12.28,0,0,1,4.65,1.77A9.65,9.65,0,0,1,45,34.5a16.71,16.71,0,0,1,1.31,7.26A16.71,16.71,0,0,1,45,49Z"/><path class="cls-4" d="M101.56,12.22V71.31h-19V12.22Z"/><path class="cls-4" d="M138.28,71.31H118.45l11-62,26.17,31.9,26.17-31.9,11,62H172.89l-3-24.14L155.59,65.82,141.32,47.17Z"/><path class="cls-4" d="M259.54,47a17.63,17.63,0,0,0-5.86-5.45,25.65,25.65,0,0,0-3.5-1.69,17.13,17.13,0,0,0,5.19-4,12.55,12.55,0,0,0,3-8.49,12.18,12.18,0,0,0-3-8.44,18.46,18.46,0,0,0-8.23-5.06,37.94,37.94,0,0,0-11.78-1.69H209.61V71.31h27.44a48.52,48.52,0,0,0,13.38-1.61,16.42,16.42,0,0,0,8.44-5.15q2.91-3.54,2.91-9.45A14.14,14.14,0,0,0,259.54,47ZM228.18,26.15h4.65a8.18,8.18,0,0,1,4.68,1.05A3.82,3.82,0,0,1,239,30.54a4.88,4.88,0,0,1-.68,2.61,4.31,4.31,0,0,1-2,1.69,8.6,8.6,0,0,1-3.46.59h-4.65Zm13.09,29.46A5.33,5.33,0,0,1,238.4,57a20.38,20.38,0,0,1-3.88.34h-6.34V47.67h6.34a25.51,25.51,0,0,1,3,.17,9.08,9.08,0,0,1,2.49.63,3.66,3.66,0,0,1,2.37,3.68A4.74,4.74,0,0,1,241.27,55.61Z"/><path class="cls-4" d="M332.27,12.22,311,48.1V71.31H292v-23L270.64,12.22h21.53l9.28,19.08,9.29-19.08Z"/><path class="cls-5" d="M225.24,106.24s5.48,68.09,86.09,42.65"/><polyline class="cls-5" points="221.68 113.18 225.25 106.24 231.6 111"/></svg>