<svg id="Calque_1" data-name="Calque 1" xmlns="http://www.w3.org/2000/svg" viewBox="0 0 438.7 451.78"><defs><style>.cls-1,.cls-2,.cls-3,.cls-4,.cls-5,.cls-6{fill:none;stroke:#fff;}.cls-1,.cls-2{stroke-linecap:round;}.cls-1,.cls-2,.cls-3,.cls-4,.cls-5{stroke-miterlimit:10;}.cls-1{stroke-dasharray:5.03 5.03;}.cls-2{stroke-dasharray:5.06 5.06;}.cls-3{stroke-width:2px;}.cls-5{stroke-width:0.75px;}.cls-6{stroke-linejoin:round;}.cls-7{fill:#fff;}</style></defs><title>ds</title><circle class="cls-1" cx="219.35" cy="225.89" r="152"/><circle class="cls-2" cx="219.35" cy="225.89" r="66"/><circle class="cls-3" cx="219.35" cy="225.89" r="60.5"/><circle class="cls-4" cx="219.35" cy="225.89" r="27.5"/><path class="cls-4" d="M348.64,363.34l-2.19,2.08c-.75.68-1.52,1.33-2.28,2l-4.57,4-4.75,3.75L332.48,377c-.81.6-1.64,1.18-2.46,1.76.6-.88,1.21-1.75,1.79-2.65l1.69-2.73c1.11-1.82,2.21-3.61,3.27-5.41l3-5.53c.49-.92,1-1.82,1.45-2.74l1.34-2.81"/><path class="cls-4" d="M337.91,351.94l-2,1.91c-.68.63-1.39,1.22-2.09,1.83l-4.19,3.64-4.36,3.43-2.18,1.72c-.74.56-1.5,1.08-2.25,1.62l-1.52,4c-.51,1.35-1,2.73-1.62,4-1.16,2.65-2.36,5.34-3.63,8.06q4,1,8.21,1.86"/><path class="cls-4" d="M309.31,391.88l-4.24-7.79c-3.29,3.33-6.63,6.82-10.25,10l-2.68-5.95c3.44-3.17,6.59-6.66,9.69-10"/><line class="cls-4" x1="289.22" y1="401.27" x2="283.41" y2="386.73"/><path class="cls-4" d="M277.37,389c-1.62,3.28-3.31,6.68-5.17,10s-3.85,6.54-6,9.82l-3.89-15.16c-1.33,1.64-2.69,3.3-4.09,5s-2.84,3.37-4.34,4.93l-4.13.73c-1.37.23-2.74.54-4.13.68"/><path class="cls-4" d="M240.79,413.47,239,397.92c-.75.09-1.5.2-2.25.27l-2.27.17-4.53.35c-1.51.15-3,.17-4.55.2l-4.54.12c1.7,1.26,3.45,2.52,5.23,3.78.89.62,1.79,1.27,2.7,1.88l2.76,1.75L229,408.59c-.86.7-1.73,1.36-2.61,2q-2.64,2-5.4,4.05"/><path class="cls-4" d="M408.07,230.3c-.07,2-.07,4-.2,6l-.46,6c-.08,1-.14,2-.24,3l-.38,3-.77,6-1.43-6.26-.73-3.08c-.27-1-.57-2.05-.86-3.06l-1.77-6c-.61-2-1.36-3.95-2-5.89"/><path class="cls-4" d="M392.42,229.94c-.06,1.84-.06,3.7-.17,5.54l-.43,5.54c-.07.92-.13,1.84-.22,2.76l-.35,2.75-.7,5.51c1.19,2.57,2.34,5.2,3.5,7.9l.86,2,.76,2,1.52,4.15c2.38-1.44,4.8-2.94,7.19-4.51"/><path class="cls-4" d="M400.71,278.34l-8.52-2.47.14,3.56c0,1.19,0,2.37,0,3.56-.05,2.37,0,4.81-.16,7.21L386,287.92c.07-2.34,0-4.71-.05-7,0-1.16,0-2.31-.07-3.46l-.24-3.46"/><line class="cls-4" x1="393.34" y1="299.25" x2="378.93" y2="293.15"/><path class="cls-4" d="M376.26,299.05l.95,2.64.85,2.64q.84,2.66,1.63,5.39c1.11,3.68,1.93,7.33,2.77,11.14L369,313c.63,4.3.86,8.53,1.14,13-.73,1.19-1.57,2.3-2.37,3.44l-2.43,3.42"/><path class="cls-4" d="M367.92,342.23l-12.31-9.66-2.82,3.57-3,3.44c-1,1.13-1.95,2.32-3,3.4l-3.14,3.3c2.1-.32,4.24-.67,6.4-1s4.23-.88,6.39-1.36c-.18,2.18-.36,4.43-.61,6.64s-.6,4.41-.94,6.66"/><path class="cls-4" d="M356.19,96c2.84,2.86,5.42,6,8.07,9,1.32,1.52,2.51,3.15,3.78,4.72s2.53,3.14,3.66,4.81c-1.73-1.23-3.61-2.32-5.41-3.44s-3.57-2.24-5.44-3.25c-3.72-2-7.31-4-11.09-5.74"/><path class="cls-4" d="M344.84,106.75c2.61,2.62,5,5.48,7.41,8.27,1.22,1.39,2.3,2.89,3.46,4.33s2.33,2.88,3.37,4.41c2.66,1,5.39,2,8.1,3.1s5.33,2.35,8.05,3.61q1-4,1.84-8.24"/><path class="cls-4" d="M384.9,135.17l-7.77,4.28c1.74,1.6,3.37,3.29,5.09,5,.84.85,1.72,1.68,2.53,2.56l2.42,2.66-5.93,2.71-2.43-2.53c-.81-.83-1.7-1.62-2.54-2.42-1.71-1.58-3.34-3.18-5.08-4.69"/><line class="cls-4" x1="394.4" y1="155.21" x2="379.89" y2="161.08"/><path class="cls-4" d="M382.24,167.12c3.29,1.59,6.63,3.29,10,5.11s6.52,3.84,9.82,5.93l-15.14,4c1.7,1.3,3.31,2.67,5,4.07s3.39,2.82,5,4.31c.49,2.75,1,5.49,1.46,8.25"/><path class="cls-4" d="M406.81,203.58l-15.54,1.84c.46,3,.57,6,.83,9.05l.18,2.27c0,.76,0,1.52.07,2.28l.11,4.54c2.51-3.42,5.11-7,7.37-10.72,2.95,3.34,5.57,6.86,8.28,10.51"/><path class="cls-4" d="M222.88,37.15l6,.16,6,.45c4,.22,8,.87,12,1.34-4.22,1-8.33,1.81-12.39,3.08l-6,1.77L222.72,46"/><path class="cls-4" d="M222.59,52.8l5.55.14,5.53.42c3.7.19,7.36.8,11,1.23,2.58-1.28,5.19-2.37,7.88-3.54s5.43-2.18,8.22-3.19c-1.45-2.36-2.95-4.84-4.54-7.15"/><path class="cls-4" d="M271,44.29l-2.43,8.53c4.75-.29,9.48-.13,14.34,0l-2.25,6.13c-4.74.05-9.34,0-13.94.44"/><line class="cls-4" x1="291.9" y1="51.58" x2="285.86" y2="66.02"/><path class="cls-4" d="M291.78,68.65c3.5-1.34,7-2.41,10.66-3.48,1.81-.52,3.67-1.08,5.52-1.53s3.7-.88,5.59-1.3l-7.83,13.55,3.21-.41c1.08-.14,2.16-.25,3.23-.33q3.21-.25,6.53-.46l1.76,1.14L322.16,77l3.41,2.43"/><path class="cls-4" d="M335,76.78l-9.6,12.36L329,92c1.18,1,2.3,2,3.46,3l3.43,3,3.29,3.14c-.33-2.11-.66-4.26-1.07-6.4s-.89-4.23-1.39-6.38c2.19.16,4.4.36,6.65.58s4.4.58,6.65.91"/><path class="cls-4" d="M87.7,90.7l4.38-4.18c1.49-1.35,3-2.65,4.55-4l2.29-2c.76-.66,1.57-1.26,2.36-1.89L106,74.94l-3.37,5.46c-.55.92-1.11,1.79-1.63,2.72l-1.52,2.79c-1,1.86-2,3.67-3,5.52l-2.68,5.62"/><path class="cls-4" d="M98.62,101.91l4-3.83c1.37-1.25,2.79-2.43,4.18-3.65l2.1-1.82c.69-.61,1.44-1.15,2.16-1.73l4.37-3.43c.93-2.69,2-5.36,3-8.1l.81-2.06.88-2,1.82-4c-2.71-.63-5.48-1.24-8.29-1.8"/><path class="cls-4" d="M126.56,61.53l4.37,7.71c.79-.87,1.58-1.77,2.39-2.64l2.5-2.53,2.54-2.55,1.29-1.28L141,59l2.78,5.9-1.25,1.22-1.22,1.28L138.88,70l-2.36,2.53c-.76.86-1.5,1.76-2.25,2.64"/><line class="cls-4" x1="146.44" y1="51.72" x2="152.5" y2="66.15"/><path class="cls-4" d="M158.52,63.77a169.26,169.26,0,0,1,10.8-19.93l4.15,15.09,1.95-2.59c.67-.84,1.35-1.66,2-2.49,1.38-1.66,2.8-3.32,4.26-5,1.35-.35,2.74-.54,4.11-.8l4.12-.74"/><path class="cls-4" d="M194.67,38.73l2,15.51,4.51-.57c1.5-.16,3-.24,4.53-.37l4.53-.35,4.55-.12c-1.73-1.24-3.5-2.56-5.3-3.74s-3.64-2.34-5.52-3.5q2.49-2.16,5.09-4.32c1.74-1.42,3.51-2.72,5.33-4.08"/><path class="cls-4" d="M30.55,224.74l.15-6c0-1,0-2,.1-3l.23-3,.46-6,.77-6,1.44,6.22L35.46,213l.88,3c.29,1,.67,2,1,3l2.07,5.85"/><path class="cls-4" d="M46.2,224.84l.14-5.55c0-.93,0-1.85.09-2.78l.22-2.76.42-5.54.7-5.5c-.64-1.28-1.31-2.58-1.92-3.88l-1.74-4c-1.14-2.67-2.36-5.42-3.31-8.18-1.19.74-2.42,1.48-3.58,2.26l-3.48,2.38"/><polyline class="cls-4" points="37.09 176.58 45.65 178.9 45.38 171.77 45.47 164.58 51.62 166.76 51.73 173.75 52.2 180.68"/><line class="cls-4" x1="44.15" y1="155.56" x2="58.67" y2="161.41"/><path class="cls-4" d="M61.2,155.46c-1.29-3.45-2.59-7-3.62-10.62s-2.18-7.36-3-11.09l13.65,7.67c-.29-2.11-.57-4.25-.82-6.43s-.37-4.31-.53-6.51L69.18,125l2.42-3.42"/><path class="cls-4" d="M68.76,112.11l12.48,9.45L84.05,118c.93-1.2,1.86-2.4,2.88-3.52l3-3.44c.5-.57,1-1.16,1.49-1.71L93,107.67l-3.2.53-3.15.65c-2.11.44-4.25.92-6.42,1.42q.24-3.26.55-6.6l.33-3.37L81.55,97"/><path class="cls-4" d="M84.76,358.17l-4.18-4.38c-.71-.71-1.37-1.47-2-2.24l-2-2.28c-2.7-3-5.14-6.21-7.64-9.38,3.68,2.27,7.24,4.52,11,6.48l2.76,1.49c.91.5,1.83,1,2.78,1.42L91.08,352"/><path class="cls-4" d="M95.92,347.2l-3.83-4c-.65-.66-1.27-1.35-1.87-2.06L88.41,339c-2.49-2.75-4.72-5.7-7-8.61-1.4-.42-2.71-.93-4.06-1.43l-4.06-1.55c-2.77-1-5.4-2.24-8.11-3.47-.61,2.71-1.27,5.52-1.74,8.29"/><path class="cls-4" d="M55.42,319.44,63.11,315l-2.65-2.38c-.89-.8-1.69-1.65-2.55-2.48-1.67-1.69-3.43-3.37-5.07-5.13l5.88-2.81c1.65,1.67,3.41,3.26,5.08,4.85.86.78,1.67,1.59,2.55,2.34L69,311.66"/><line class="cls-4" x1="45.51" y1="299.6" x2="59.91" y2="293.47"/><path class="cls-4" d="M57.52,287.46c-3.46-1.48-6.67-3.19-10.06-4.95s-6.63-3.7-9.92-5.75l15.07-4.22c-3.52-2.54-6.76-5.3-10.12-8.2l-.47-2-.37-2.06-.73-4.13"/><path class="cls-4" d="M32.29,251.44l15.51-2.11c-.38-3-.82-6-1-9l-.35-4.53c-.14-1.51-.1-3-.16-4.55-2.6,3.48-4.87,7.08-7.21,10.85-2.85-3.3-5.81-6.76-8.44-10.37"/><path class="cls-4" d="M219.07,414.71A192.6,192.6,0,0,1,195,413.09a180.21,180.21,0,0,0,24.13-7.24"/><path class="cls-4" d="M219.09,399.06A178,178,0,0,1,197,397.57l-3.88,1.94c-1.3.63-2.61,1.18-3.94,1.77l-4,1.73c-1.36.58-2.74,1.14-4.12,1.62,1.47,2.45,3.05,4.67,4.68,7"/><path class="cls-4" d="M170.88,408.39l2.28-8.57-7.12.27c-2.39.06-4.77,0-7.19,0l2.14-6.16c2.36,0,4.67,0,7-.15l6.91-.47"/><line class="cls-4" x1="149.83" y1="401.41" x2="155.61" y2="386.86"/><path class="cls-4" d="M149.64,384.37a170.35,170.35,0,0,1-21.67,6.7l7.6-13.69c-4.2.57-8.59,1.17-12.93,1.4-2.35-1.51-4.73-3-7-4.65"/><path class="cls-4" d="M106.26,377l9.39-12.52c-2.37-1.9-4.8-3.72-7.12-5.66l-3.44-3c-1.15-1-2.31-2-3.38-3,.31,2.15.76,4.21,1.21,6.34s.93,4.26,1.45,6.42c-2.18-.15-4.37-.33-6.6-.53s-4.51-.41-6.71-.76"/><path class="cls-5" d="M253.5,262.19l-2.37,2.15-2.55,1.92c.2-1.54.35-3,.43-4.49s0-3-.07-4.42"/><path class="cls-5" d="M245.45,253.64l-1.81,1.65-2,1.47c.29,1.28.57,2.63.74,3.93s.32,2.63.42,4q1.8,1.54,3.7,3"/><path class="cls-5" d="M243.13,269.76,240,263.91c-.44,1.44-1,2.92-1.55,4.44l-2-4.46c.46-1.52.83-3,1.13-4.45"/><line class="cls-5" x1="237.81" y1="272.22" x2="233.45" y2="261.32"/><path class="cls-5" d="M232.11,261.8c.12,2,.16,4.14.09,6.2s-.23,4.1-.47,6.18l-2.92-11.37a56.91,56.91,0,0,1-1.05,6.29l-2,.31"/><path class="cls-5" d="M225,275.45l-1.33-11.66c-1.32.15-2.66.15-4,.25q1.15,2.86,2.64,5.73c-.73,2-1.58,4-2.53,6"/><path class="cls-5" d="M269.19,227.05l-.16,3.19a10.45,10.45,0,0,1-.17,1.59l-.23,1.58c-.47-.61-.94-1.2-1.42-1.77a19.47,19.47,0,0,0-1.49-1.68q-1.58-1.64-3.18-3.06"/><path class="cls-5" d="M257.46,226.78l-.12,2.45a7,7,0,0,1-.13,1.21l-.19,1.21a50.45,50.45,0,0,1,6.46,4.73c1.57-.12,3.17-.29,4.76-.51"/><path class="cls-5" d="M267.25,239.75l-6.38-1.85.59,1c.18.34.34.68.51,1,.33.7.66,1.42,1,2.16l-4.58-1.71q-.56-1-1.14-2c-.19-.33-.38-.65-.58-1l-.67-1"/><line class="cls-5" x1="265.33" y1="245.28" x2="254.51" y2="240.71"/><path class="cls-5" d="M253.89,242a69.88,69.88,0,0,1,8.53,9l-10.13-5.92a61.48,61.48,0,0,1,3.72,5.17c-.36.57-.8,1.09-1.19,1.64"/><path class="cls-5" d="M258.59,256.63l-9.24-7.25-.6.8-.68.74-1.34,1.49c1.9.8,3.89,1.53,6,2.17q1.35,2.86,2.48,6"/><path class="cls-5" d="M255.49,191.57l2.15,2.37c.68.82,1.29,1.69,1.94,2.54-1.54-.19-3-.36-4.49-.41s-3,0-4.42.09"/><path class="cls-5" d="M247,199.66l1.65,1.81c.52.62,1,1.3,1.48,1.95,1.28-.3,2.61-.57,3.94-.77s2.62-.33,4-.43q1.53-1.8,3-3.72"/><path class="cls-5" d="M263.09,201.91l-5.83,3.21c1.48.42,2.93.94,4.45,1.52l-4.45,2c-1.53-.44-3-.82-4.45-1.1"/><line class="cls-5" x1="265.59" y1="207.21" x2="254.71" y2="211.62"/><path class="cls-5" d="M255.2,213c2-.12,4.11-.17,6.2-.12s4.1.21,6.18.45l-11.36,3a60.26,60.26,0,0,1,6.3,1l.31,2"/><path class="cls-5" d="M268.87,220l-11.66,1.38a14.85,14.85,0,0,1,.17,2l.1,2c1.91-.77,3.83-1.66,5.74-2.66,2,.72,4,1.55,6,2.5"/><path class="cls-5" d="M220.28,176a46.65,46.65,0,0,1,6.36.55,44.41,44.41,0,0,0-6.48,6.1"/><path class="cls-5" d="M220.06,187.77a34.41,34.41,0,0,1,4.87.42,50.94,50.94,0,0,1,4.71-6.48c-.14-1.57-.31-3.2-.54-4.75"/><path class="cls-5" d="M233,177.93l-1.82,6.39a33.71,33.71,0,0,1,4.21-2.1l-1.69,4.59a30.62,30.62,0,0,0-3.91,2.41"/><line class="cls-5" x1="238.52" y1="179.83" x2="234" y2="190.67"/><path class="cls-5" d="M235.29,191.27a69.9,69.9,0,0,1,9-8.57l-5.88,10.16c1.62-1.3,3.33-2.55,5.15-3.74a19.2,19.2,0,0,1,1.66,1.18"/><path class="cls-5" d="M249.9,186.51l-7.21,9.27.81.6c.26.2.5.44.75.67l1.48,1.34a62.7,62.7,0,0,0,2.15-6c1.91-.91,3.91-1.74,6-2.49"/><path class="cls-5" d="M184.56,190.17a49.19,49.19,0,0,1,4.87-4.13,44.46,44.46,0,0,0-.22,8.9"/><path class="cls-5" d="M192.76,198.58a37.51,37.51,0,0,1,3.73-3.16,50.87,50.87,0,0,1-1.31-7.9c-1.21-1-2.47-2-3.76-3"/><path class="cls-5" d="M194.83,182.47l3.28,5.79c.09-.38.19-.77.3-1.15l.36-1.09c.24-.74.51-1.48.8-2.24l2.08,4.43c-.21.76-.41,1.5-.59,2.24l-.25,1.09c-.08.38-.13.77-.19,1.15"/><line class="cls-5" x1="200.08" y1="179.87" x2="204.62" y2="190.69"/><path class="cls-5" d="M206,190.21a70.31,70.31,0,0,1,.17-12.39l3.12,11.32a62.15,62.15,0,0,1,.95-6.31c.65-.16,1.33-.22,2-.34"/><path class="cls-5" d="M212.83,176.46l1.53,11.64,1-.16c.33,0,.67,0,1-.05l2-.1a63.56,63.56,0,0,0-2.73-5.74c.69-2,1.51-4,2.43-6"/><path class="cls-5" d="M169.46,225.59l.16-3.19.08-1.6.24-1.58c.47.6.94,1.19,1.42,1.75s1,1.12,1.58,1.66q1.58,1.6,3.17,3"/><path class="cls-5" d="M181.2,225.66l.13-2.44,0-1.23.19-1.2a55.24,55.24,0,0,1-6.55-4.63c-1.6.14-3.15.35-4.7.6"/><path class="cls-5" d="M171.22,212.87l6.42,1.74c-.4-.67-.79-1.35-1.18-2.06s-.67-1.4-1-2.13l4.61,1.63c.37.68.76,1.34,1.14,2s.89,1.3,1.33,1.91"/><line class="cls-5" x1="173.07" y1="207.31" x2="183.96" y2="211.69"/><path class="cls-5" d="M184.52,210.38a72,72,0,0,1-8.69-8.84l10.23,5.75c-1.31-1.59-2.57-3.29-3.77-5.08l.53-.87.6-.82"/><path class="cls-5" d="M179.59,195.85l9.36,7.08c.41-.52.76-1.1,1.22-1.58l1.36-1.48a61.08,61.08,0,0,0-6-2.1q-1.38-2.84-2.54-5.93"/><path class="cls-5" d="M183.78,260.84a53.2,53.2,0,0,1-4.15-4.84,45.93,45.93,0,0,0,8.9.18"/><path class="cls-5" d="M192.16,252.62A40,40,0,0,1,189,248.9a52,52,0,0,1-7.89,1.33c-1,1.22-2,2.5-2.94,3.77"/><path class="cls-5" d="M176.05,250.61l5.77-3.31a34.91,34.91,0,0,1-4.49-1.43l4.42-2.11a31.82,31.82,0,0,0,4.48,1"/><line class="cls-5" x1="173.41" y1="245.38" x2="184.21" y2="240.78"/><path class="cls-5" d="M183.72,239.44a70.29,70.29,0,0,1-12.39-.11l11.31-3.17a61.35,61.35,0,0,1-6.3-.92,19.49,19.49,0,0,1-.36-2"/><path class="cls-5" d="M170,232.63l11.63-1.58a31.26,31.26,0,0,1-.33-4c-1.91.81-3.83,1.73-5.73,2.76a62.5,62.5,0,0,1-6-2.4"/><path class="cls-5" d="M219.27,275.79l-3.19-.15-1.59-.09c-.53,0-1.06-.15-1.58-.22.6-.48,1.17-.92,1.74-1.44s1.12-1.05,1.65-1.57q1.6-1.59,3-3.18"/><path class="cls-5" d="M219.29,264.05l-2.44-.13-1.23-.06c-.4,0-.8-.11-1.2-.17a57,57,0,0,1-4.6,6.58c.15,1.61.37,3.12.63,4.69"/><path class="cls-5" d="M206.55,274.07l1.71-6.42c-.67.4-1.35.79-2,1.18s-1.4.68-2.13,1l1.61-4.62c.68-.39,1.33-.74,2-1.17s1.28-.88,1.9-1.33"/><line class="cls-5" x1="200.98" y1="272.25" x2="205.32" y2="261.34"/><path class="cls-5" d="M204,260.8a74.11,74.11,0,0,1-8.8,8.73l5.7-10.26q-2.39,2-5.06,3.79a16.09,16.09,0,0,1-1.7-1.12"/><path class="cls-5" d="M189.49,265.79l7-9.39c-.53-.41-1.09-.78-1.6-1.22l-1.48-1.35c-.77,1.94-1.47,4-2.07,6-1.89.94-3.86,1.79-5.91,2.57"/><circle class="cls-4" cx="219.35" cy="225.89" r="201.12" transform="translate(-95.48 221.26) rotate(-45)"/><circle class="cls-3" cx="219.35" cy="225.89" r="158.12"/><polygon class="cls-6" points="313.72 317.14 325.84 273.72 325.7 273.46 313.72 280.38 313.72 317.14"/><polygon class="cls-6" points="172.08 119 124.97 131.52 164.86 131.52 172.08 119"/><polygon class="cls-7" points="124.97 134.69 112.76 178.46 124.97 171.4 124.97 134.69"/><polygon class="cls-6" points="252.91 97.54 207.27 109.66 207.15 109.87 219.35 116.92 252.91 97.54"/><polygon class="cls-4" points="194.06 131.52 194.12 131.48 172.96 118.77 172.08 119 164.86 131.52 194.06 131.52"/><polygon class="cls-4" points="110.37 225.89 90.43 260.44 124.97 280.38 124.97 251.18 110.37 225.89"/><polygon class="cls-4" points="194.12 131.48 194.23 131.42 207.15 109.87 184.8 96.97 172.08 119 172.96 118.77 194.12 131.48"/><polygon class="cls-4" points="328.32 225.89 348.27 191.35 313.72 171.4 313.72 200.6 328.32 225.89"/><polygon class="cls-7" points="219.35 116.92 207.15 109.87 194.23 131.42 219.35 116.92"/><polygon class="cls-4" points="219.35 334.87 231.94 342.14 244.52 321.14 265.74 333.89 266.02 333.81 273.83 320.27 244.63 320.27 219.35 334.87"/><polygon class="cls-4" points="244.52 321.14 231.94 342.14 253.89 354.81 266.02 333.81 265.74 333.89 244.52 321.14"/><polygon class="cls-4" points="103.14 212.93 103.06 213.22 110.37 225.89 124.59 201.26 103.14 212.93"/><polygon class="cls-4" points="313.72 251.3 313.72 251.49 325.7 273.46 348.27 260.44 335.64 238.57 335.38 239.52 313.72 251.3"/><polygon class="cls-4" points="124.59 201.26 124.79 200.93 112.68 178.72 112.76 178.46 90.43 191.35 103.06 213.22 103.14 212.93 124.59 201.26"/><polygon class="cls-7" points="313.72 280.38 325.7 273.46 313.72 251.49 313.72 280.38"/><polygon class="cls-4" points="124.79 200.93 124.97 200.6 124.97 171.4 112.76 178.46 112.68 178.72 124.79 200.93"/><polygon class="cls-4" points="164.86 320.27 184.8 354.81 219.35 334.87 194.06 320.27 164.86 320.27"/><polygon class="cls-4" points="244.63 131.52 273.83 131.52 253.89 96.97 252.91 97.54 253.98 97.25 252.91 97.54 219.35 116.92 244.63 131.52"/><polygon class="cls-4" points="313.72 251.18 313.72 251.3 335.38 239.52 335.64 238.57 328.32 225.89 313.72 251.18"/><polygon class="cls-4" points="124.88 201.1 124.79 200.93 124.59 201.26 124.88 201.1"/><polygon class="cls-4" points="244.63 131.52 219.35 116.92 194.23 131.42 194.17 131.52 244.63 131.52"/><polygon class="cls-7" points="313.72 251.18 328.32 225.89 313.72 200.6 313.72 251.18"/><polygon class="cls-7" points="124.97 200.6 124.79 200.93 124.88 201.1 124.59 201.26 110.37 225.89 124.97 251.18 124.97 200.6"/><polygon class="cls-4" points="194.23 131.42 194.12 131.48 194.17 131.52 194.23 131.42"/><polygon class="cls-4" points="194.06 320.27 219.35 334.87 244.63 320.27 194.06 320.27"/><polygon class="cls-4" points="194.12 131.48 194.06 131.52 194.17 131.52 194.12 131.48"/><polygon class="cls-4" points="313.72 171.4 313.72 157.17 288.97 156.89 289.27 132.15 288.64 131.52 273.83 131.52 288.44 156.8 313.72 171.4"/><polygon class="cls-4" points="288.97 156.89 313.72 157.17 313.72 131.52 288.64 131.52 289.27 132.15 288.97 156.89"/><polygon class="cls-4" points="288.44 294.98 273.83 320.27 312.85 320.27 313.72 317.14 313.72 280.38 288.44 294.98"/><polygon class="cls-4" points="313.72 320.27 313.72 317.14 312.85 320.27 313.72 320.27"/><polygon class="cls-4" points="124.97 280.38 124.97 295.49 149.73 295.77 149.43 320.27 164.86 320.27 150.26 294.98 124.97 280.38"/><polygon class="cls-4" points="124.97 295.49 124.97 320.27 149.43 320.27 149.73 295.77 124.97 295.49"/><polygon class="cls-4" points="150.26 156.8 164.86 131.52 124.97 131.52 124.97 134.69 125.67 132.17 124.97 134.69 124.97 171.4 150.26 156.8"/><polygon class="cls-7" points="164.86 131.52 150.26 156.8 194.06 131.52 164.86 131.52"/><polygon class="cls-4" points="244.63 320.27 273.83 320.27 288.44 294.98 244.63 320.27"/><polygon class="cls-4" points="124.97 251.18 124.97 280.38 150.26 294.98 124.97 251.18"/><polygon class="cls-4" points="313.72 200.6 313.72 171.4 288.44 156.8 313.72 200.6"/><polygon class="cls-4" points="313.72 251.49 313.72 251.3 313.64 251.34 313.72 251.49"/><polygon class="cls-4" points="313.72 280.38 313.72 251.49 313.64 251.34 313.72 251.3 313.72 251.18 288.44 294.98 313.72 280.38"/><polygon class="cls-4" points="288.44 156.8 273.83 131.52 244.63 131.52 288.44 156.8"/><polygon class="cls-4" points="124.97 171.4 124.97 200.6 150.26 156.8 124.97 171.4"/><polygon class="cls-7" points="150.26 294.98 164.86 320.27 194.06 320.27 150.26 294.98"/><polygon class="cls-4" points="288.44 156.8 244.63 131.52 194.17 131.52 194.06 131.52 150.26 156.8 124.97 200.6 124.97 251.18 150.26 294.98 194.06 320.27 244.63 320.27 288.44 294.98 313.72 251.18 313.72 200.6 288.44 156.8"/><polygon class="cls-6" points="103.06 213.22 90.43 260.44 110.37 225.89 103.06 213.22"/><polygon class="cls-7" points="124.97 295.49 90.43 260.44 124.97 280.38 124.97 295.49"/><polygon class="cls-6" points="149.43 320.27 184.8 354.81 164.86 320.27 149.43 320.27"/><polygon class="cls-7" points="231.94 342.14 184.8 354.81 219.35 334.87 231.94 342.14"/><polygon class="cls-7" points="266.02 333.81 312.85 320.27 273.83 320.27 266.02 333.81"/><polygon class="cls-6" points="348.27 191.35 336.02 239.22 328.32 225.89 348.27 191.35"/><polygon class="cls-7" points="313.72 157.17 313.72 171.4 348.27 191.35 313.72 157.17"/><polygon class="cls-7" points="289.27 131.54 253.89 96.97 273.83 131.52 289.27 131.54"/><polygon class="cls-5" points="238.68 233.92 202.69 238.66 216.58 205.12 238.68 233.92"/><polygon class="cls-5" points="221.87 246.74 199.78 217.94 235.77 213.2 221.87 246.74"/></svg>