<svg id="Calque_1" data-name="Calque 1" xmlns="http://www.w3.org/2000/svg" viewBox="0 0 69.26 909.94"><defs><style>.cls-1{fill:none;stroke:#fff;stroke-miterlimit:10;}</style></defs><title>ds-aerogliph</title><polyline class="cls-1" points="27.42 125.89 27.42 108.23 36.29 125.89"/><polyline class="cls-1" points="43.07 125.89 43.07 108.23 33.42 96.95 27.42 101.36"/><polyline class="cls-1" points="27.42 90.33 36.29 90.33 31.86 80.03 38.38 80.03 43.07 90.33"/><line class="cls-1" x1="27.42" y1="74.14" x2="43.07" y2="74.14"/><polyline class="cls-1" points="43.07 68.99 27.42 56.48 43.07 56.48 35.25 48.39 35.25 42.01"/><polyline class="cls-1" points="27.42 37.6 43.07 37.6 43.07 23.13 35.25 31.22 27.42 23.13"/><polyline class="cls-1" points="27.42 235.06 27.42 217.4 36.29 235.06"/><polyline class="cls-1" points="43.07 235.06 43.07 217.4 33.42 206.12 27.42 210.54"/><polyline class="cls-1" points="27.42 199.5 36.29 199.5 31.86 189.2 38.38 189.2 43.07 199.5"/><line class="cls-1" x1="27.42" y1="183.31" x2="43.07" y2="183.31"/><polyline class="cls-1" points="43.07 178.16 27.42 165.66 43.07 165.66 35.25 157.56 35.25 151.19"/><polyline class="cls-1" points="27.42 146.77 43.07 146.77 43.07 132.3 35.25 140.4 27.42 132.3"/><polyline class="cls-1" points="27.42 342.89 27.42 325.23 36.29 342.89"/><polyline class="cls-1" points="43.07 342.89 43.07 325.23 33.42 313.95 27.42 318.36"/><polyline class="cls-1" points="27.42 307.33 36.29 307.33 31.86 297.03 38.38 297.03 43.07 307.33"/><line class="cls-1" x1="27.42" y1="291.14" x2="43.07" y2="291.14"/><polyline class="cls-1" points="43.07 285.99 27.42 273.48 43.07 273.48 35.25 265.39 35.25 259.01"/><polyline class="cls-1" points="27.42 254.6 43.07 254.6 43.07 240.13 35.25 248.22 27.42 240.13"/><polyline class="cls-1" points="27.42 452.06 27.42 434.4 36.29 452.06"/><polyline class="cls-1" points="43.07 452.06 43.07 434.4 33.42 423.12 27.42 427.54"/><polyline class="cls-1" points="27.42 416.5 36.29 416.5 31.86 406.2 38.38 406.2 43.07 416.5"/><line class="cls-1" x1="27.42" y1="400.32" x2="43.07" y2="400.32"/><polyline class="cls-1" points="43.07 395.17 27.42 382.66 43.07 382.66 35.25 374.56 35.25 368.19"/><polyline class="cls-1" points="27.42 363.77 43.07 363.77 43.07 349.31 35.25 357.4 27.42 349.31"/><polyline class="cls-1" points="27.42 560.99 27.42 543.34 36.29 560.99"/><polyline class="cls-1" points="43.07 560.99 43.07 543.34 33.42 532.05 27.42 536.47"/><polyline class="cls-1" points="27.42 525.43 36.29 525.43 31.86 515.13 38.38 515.13 43.07 525.43"/><line class="cls-1" x1="27.42" y1="509.25" x2="43.07" y2="509.25"/><polyline class="cls-1" points="43.07 504.1 27.42 491.59 43.07 491.59 35.25 483.5 35.25 477.12"/><polyline class="cls-1" points="27.42 472.7 43.07 472.7 43.07 458.24 35.25 466.33 27.42 458.24"/><polyline class="cls-1" points="27.42 670.17 27.42 652.51 36.29 670.17"/><polyline class="cls-1" points="43.07 670.17 43.07 652.51 33.42 641.23 27.42 645.64"/><polyline class="cls-1" points="27.42 634.61 36.29 634.61 31.86 624.31 38.38 624.31 43.07 634.61"/><line class="cls-1" x1="27.42" y1="618.42" x2="43.07" y2="618.42"/><polyline class="cls-1" points="43.07 613.27 27.42 600.76 43.07 600.76 35.25 592.67 35.25 586.29"/><polyline class="cls-1" points="27.42 581.88 43.07 581.88 43.07 567.41 35.25 575.5 27.42 567.41"/><polyline class="cls-1" points="27.42 778 27.42 760.34 36.29 778"/><polyline class="cls-1" points="43.07 778 43.07 760.34 33.42 749.06 27.42 753.47"/><polyline class="cls-1" points="27.42 742.43 36.29 742.43 31.86 732.13 38.38 732.13 43.07 742.43"/><line class="cls-1" x1="27.42" y1="726.25" x2="43.07" y2="726.25"/><polyline class="cls-1" points="43.07 721.1 27.42 708.59 43.07 708.59 35.25 700.5 35.25 694.12"/><polyline class="cls-1" points="27.42 689.71 43.07 689.71 43.07 675.24 35.25 683.33 27.42 675.24"/><polyline class="cls-1" points="27.42 887.17 27.42 869.51 36.29 887.17"/><polyline class="cls-1" points="43.07 887.17 43.07 869.51 33.42 858.23 27.42 862.65"/><polyline class="cls-1" points="27.42 851.61 36.29 851.61 31.86 841.31 38.38 841.31 43.07 851.61"/><line class="cls-1" x1="27.42" y1="835.42" x2="43.07" y2="835.42"/><polyline class="cls-1" points="43.07 830.27 27.42 817.77 43.07 817.77 35.25 809.67 35.25 803.3"/><polyline class="cls-1" points="27.42 798.88 43.07 798.88 43.07 784.41 35.25 792.51 27.42 784.41"/><line class="cls-1" x1="21.16" y1="23.13" x2="21.16" y2="406.2"/><line class="cls-1" x1="50.32" y1="503.45" x2="50.32" y2="886.52"/></svg>