<svg id="Calque_1" data-name="Calque 1" xmlns="http://www.w3.org/2000/svg" viewBox="0 0 444.56 672.71"><defs><style>.cls-1,.cls-2,.cls-4{fill:#fff;}.cls-1,.cls-3{opacity:0.4;}.cls-2{opacity:0.28;}</style></defs><title>sp-face</title><path class="cls-1" d="M321.63,50.52C278.2,90.43,187.81,135,151.42,199s-47,136.74-47,136.74,144.39,81,217.17-19.22S321.63,50.52,321.63,50.52ZM308.72,289.17c-36.39,74.78-140.87,81.76-189,40.12,0,0,2.35-114.43,182-207.16C301.68,122.13,345.11,214.39,308.72,289.17Z"/><path class="cls-2" d="M125.59,326.39S142,215.26,293.85,148c0,0,34.44,104.09-12.52,145.31S184.81,343.86,125.59,326.39Z"/><g class="cls-3"><path class="cls-4" d="M54.67,12.75A242,242,0,0,0,38,52.64a314.72,314.72,0,0,0-14.87,84.72,304.12,304.12,0,0,0,1.26,43c.25,3.58.77,7.13,1.21,10.69s.82,7.13,1.51,10.65l1.8,10.62,2.22,10.54c.38,1.75.72,3.52,1.14,5.26l1.34,5.22c.89,3.48,1.72,7,2.68,10.45l3.13,10.33c.53,1.72,1,3.45,1.59,5.16l1.8,5.09,3.62,10.18,4.07,10c2.59,6.74,5.79,13.21,8.8,19.78,1.44,3.31,3.2,6.47,4.88,9.67l5.08,9.57c.81,1.62,1.77,3.15,2.69,4.7l2.79,4.65,5.58,9.3.18.31,0,.34c-.34,5.57-.41,11.2-.35,16.81s.23,11.22.57,16.82a264.44,264.44,0,0,0,4.06,33.36c1.07,5.49,2.26,11,3.78,16.32A141.7,141.7,0,0,0,93.85,442a104.09,104.09,0,0,0,7.32,14.82,71.62,71.62,0,0,0,9.92,12.89l2.92,2.77,3.2,2.93c1.07,1,2,2,3.07,3.05s2,2.08,3,3.15c2,2.1,3.78,4.33,5.61,6.54s3.53,4.51,5.18,6.84a282.4,282.4,0,0,1,18.13,28.91c11.06,19.79,20.61,40.28,31.06,60.06,5.26,9.84,10.61,19.68,17.1,28.4l2.5,3.17c.89,1,1.72,2,2.65,3,1.87,2,3.75,3.93,5.76,5.73a77.84,77.84,0,0,0,12.91,9.61,84.93,84.93,0,0,0,30.46,10.48A119.18,119.18,0,0,0,271,645.73l2.06.06c.69,0,1.38,0,2.07,0l4.14-.07c2.76-.12,5.52-.27,8.28-.47a252.05,252.05,0,0,0,33-5c2.72-.61,5.47-1.14,8.18-1.81l8.16-2,8.11-2.19c2.7-.72,5.37-1.57,8.07-2.35,21.48-6.46,42.6-14.25,63.54-22.54l.28.64c-10.2,4.79-20.48,9.42-30.92,13.71-5.2,2.2-10.45,4.26-15.73,6.28-2.63,1-5.3,1.93-8,2.91l-4,1.44-4,1.36c-21.37,7.34-43.42,13.22-66.18,15.65-1.42.19-2.85.25-4.27.37s-2.86.24-4.29.3l-4.3.15c-.72,0-1.44.06-2.16.07h-2.16a126.93,126.93,0,0,1-17.28-1.12,89.74,89.74,0,0,1-33.14-11,85.05,85.05,0,0,1-14.25-10.36c-2.19-1.95-4.26-4-6.25-6.14-1-1.07-1.95-2.23-2.93-3.34l-2.72-3.46a156.19,156.19,0,0,1-9.45-14.49q-4.32-7.41-8.21-15c-10.33-20.17-19.56-40.67-30.23-60.34q-4-7.38-8.28-14.55t-9-14A154.09,154.09,0,0,0,119,485.35c-.89-1.05-1.78-2.1-2.74-3.08s-1.85-2-2.84-3l-3-2.87-3.11-3.13a76.46,76.46,0,0,1-10.16-14.16,106.16,106.16,0,0,1-7.1-15.69,177.49,177.49,0,0,1-8.28-33.05c-.93-5.59-1.56-11.21-2.15-16.84s-1-11.26-1.24-16.9c-.58-11.29-.62-22.57-.11-33.9l.17.65C74.74,337.19,70.9,331,67.2,324.77l-5.32-9.51-2.66-4.77-.67-1.19-.61-1.21-1.24-2.43c-3.26-6.5-6.73-12.91-9.59-19.61l-4.49-10-4-10.16-2-5.09c-.64-1.71-1.19-3.44-1.79-5.17L31.24,245.3c-1.09-3.48-2.06-7-3.09-10.5l-1.51-5.27c-.46-1.77-.84-3.56-1.27-5.34L22.91,213.5,21,202.7c-.71-3.59-1.09-7.23-1.58-10.85s-1-7.25-1.23-10.91-.61-7.29-.83-10.94l-.39-11c-.1-1.83,0-3.66,0-5.49l0-5.49c0-3.66.22-7.31.4-11a295.42,295.42,0,0,1,5.59-43.46,287.14,287.14,0,0,1,12-42c5.23-13.6,11.2-27,19.12-39.21Z"/><path class="cls-4" d="M74.94,330.62a13.55,13.55,0,0,1,.52-5.85,17.84,17.84,0,0,1,1-2.53A7.58,7.58,0,0,1,77.93,320c1.31-1.32,3.16-2.34,4.18-3.82a11.32,11.32,0,0,0,1.82-5.12l.15-1.1,2.49.28a26.57,26.57,0,0,1,2.74.39c.88.19,1.71.49,2.55.76a23.69,23.69,0,0,1,4.88,2,24,24,0,0,1,4.25,3.22,20.79,20.79,0,0,1,1.92,2,16.32,16.32,0,0,1,1.71,2.45l-.32.63a15.1,15.1,0,0,1-3,.1,20.75,20.75,0,0,1-2.78-.3,24.14,24.14,0,0,1-5.14-1.46,24.45,24.45,0,0,1-4.52-2.7c-.72-.52-1.46-1-2.14-1.59s-1.32-1.27-2-1.95l2.65-.82a11.41,11.41,0,0,0-3.4,4.25c-.72,1.65-.61,3.76-1,5.56a7.7,7.7,0,0,1-1.1,2.46,19.81,19.81,0,0,1-1.64,2.16,13.72,13.72,0,0,1-4.7,3.52Z"/><path class="cls-4" d="M82.11,360.74a15.61,15.61,0,0,1,6.18-.89,18.38,18.38,0,0,1,2.9.32,8.81,8.81,0,0,1,2.76.88c1.77.89,3.36,2.45,5.18,3.14a12.62,12.62,0,0,0,5.79.67l-1.89.6c.4-.94.77-1.91,1.22-2.8a26.54,26.54,0,0,1,1.53-2.53,31,31,0,0,1,3.48-4.69,29.22,29.22,0,0,1,4.55-3.77,23.66,23.66,0,0,1,2.65-1.56,17.78,17.78,0,0,1,3-1.26l.53.46a17.49,17.49,0,0,1-.82,3.15A23.15,23.15,0,0,1,118,355.3a29.14,29.14,0,0,1-3.08,5,31,31,0,0,1-4.15,4.11,23,23,0,0,1-2.29,1.87c-.82.58-1.72,1.09-2.59,1.61l-1.46.88-.43-.28a12.58,12.58,0,0,0-5.42-2.14c-1.93-.25-4.07.38-6,.34a9.15,9.15,0,0,1-2.85-.52A18.94,18.94,0,0,1,87,365.12a15.58,15.58,0,0,1-5-3.7Z"/><path class="cls-4" d="M64.89,21.26c-1.73,12-3.43,24-4.94,36-.42,3-.75,6-1.12,9s-.69,6-1.08,9c-.68,6-1.39,12-2.19,18-1.58,12-3.42,24-4,36.06a245.13,245.13,0,0,0,1.11,36.25c.25,3,.61,6,1,9l.53,4.5c.15,1.5.34,3,.54,4.49.42,3,.75,6,1.12,9l1.26,8.94c.21,1.49.4,3,.64,4.47l.76,4.45c.52,3,.94,5.94,1.53,8.88s1.14,5.9,1.69,8.86,1.22,5.88,1.79,8.82c4.61,23.61,11.24,46.7,18.81,69.82l-.64.28c-1.45-2.67-2.87-5.38-4.26-8.09l-2.07-4.09-1.87-4.18c-1.24-2.79-2.48-5.58-3.67-8.4s-2.21-5.7-3.26-8.57c-.53-1.43-1.08-2.86-1.59-4.3L63.56,265c-.92-2.92-1.89-5.82-2.76-8.76-1.63-5.89-3.32-11.78-4.57-17.78a303.88,303.88,0,0,1-5.67-36.23c-.28-3-.62-6.08-.86-9.12s-.41-6.1-.54-9.14-.19-6.11-.25-9.16-.09-6.09,0-9.14c.07-12.19.38-24.34.47-36.49s-.29-24.36.4-36.55c.2-3,.4-6.08.72-9.12s.66-6.06,1.1-9.08q1.24-9.06,3-18c.54-3,1.24-6,1.9-8.94s1.39-5.94,2.2-8.89a168.16,168.16,0,0,1,5.52-17.45Z"/><path class="cls-4" d="M178.15,27.58c-1.27,4.31-2.62,8.57-4,12.8s-2.78,8.46-4.2,12.67l-4.32,12.58c-1.44,4.2-3,8.36-4.58,12.49-3.26,8.26-7,16.41-9.62,24.92a173.86,173.86,0,0,0-5.89,26c-.33,2.21-.71,4.4-1,6.6s-.6,4.41-.94,6.6c-.59,4.4-1.35,8.76-1.91,13.15s-1.15,8.77-1.68,13.16l-.72,6.58c-.26,2.19-.54,4.38-.75,6.58-1.08,8.76-1.83,17.54-2.61,26.36s-1.12,17.68-1.71,26.65l-.7.05C130,217.12,129.59,198.9,131.1,181a242.25,242.25,0,0,1,4.05-26.68c.43-2.2.86-4.41,1.38-6.59s1-4.39,1.55-6.56c1.12-4.35,2.4-8.66,3.71-12.94,2.65-8.58,5.22-17.13,7.45-25.78s3.84-17.52,6.27-26.16c1.21-4.32,2.64-8.57,4.25-12.75s3.28-8.35,5.1-12.45,3.74-8.15,5.85-12.12a122.55,122.55,0,0,1,6.8-11.66Z"/><path class="cls-4" d="M41.58,255c1-2.57,2.22-5,3.44-7.33s2.48-4.65,3.74-6.9,2.46-4.52,3.69-6.69a46.54,46.54,0,0,0,3.36-6.34L57,224.48l2,1.67a36.45,36.45,0,0,0,7.54,5,42.45,42.45,0,0,0,8.55,3c3,.71,6,1.18,8.91,1.76s5.84,1.22,8.77,1.67,5.84.86,8.73,1.3,5.79.82,8.71,1.18,5.84.58,8.82.79,6,.23,9.15.36l.16.68A43.44,43.44,0,0,1,110,246.66a55,55,0,0,1-9.52-.33,59.3,59.3,0,0,1-9.26-2,81.28,81.28,0,0,1-8.91-3c-2.88-1.21-5.64-2.75-8.37-4.22s-5.49-2.84-8.31-4.06-5.72-2.2-8.77-3.3L60,228.22a21.05,21.05,0,0,1-2,8.59,40.86,40.86,0,0,1-4.29,7.1,55.94,55.94,0,0,1-5.3,6.2,40.63,40.63,0,0,1-6.29,5.28Z"/><path class="cls-4" d="M23.84,110.43C26,106.64,28.27,103,30.6,99.36s4.74-7.2,7.19-10.74,5-7,7.47-10.5L52.67,68l2.18-3,2.47,2.15c.69.6,1.55,1.28,2.36,1.92L62.19,71c1.68,1.28,3.42,2.52,5.17,3.74a102.75,102.75,0,0,0,11,6.73,81,81,0,0,0,24.4,8.14,102.08,102.08,0,0,0,12.79,1.21c2.14,0,4.26.09,6.39,0s4.24-.16,6.36-.23a120.28,120.28,0,0,0,24.91-4.07l2.29-.63,1.59,2c.81,1,1.73,2.16,2.61,3.25l2.72,3.25q2.77,3.22,5.63,6.38c3.82,4.19,7.77,8.27,12,12.08a125.62,125.62,0,0,0,13.19,10.71c2.33,1.62,4.73,3.13,7.21,4.55a84.24,84.24,0,0,0,7.75,3.79l-.19.68a52,52,0,0,1-8.62-2.06,72.92,72.92,0,0,1-8.24-3.41c-2.66-1.34-5.24-2.82-7.77-4.39s-4.94-3.32-7.32-5.1a133.13,133.13,0,0,1-13.31-11.8c-2.07-2.12-4.08-4.29-6-6.55q-1.46-1.68-2.83-3.44c-.94-1.18-1.82-2.32-2.73-3.62l3.88,1.4a112.74,112.74,0,0,1-13.25,2.23,103.41,103.41,0,0,1-13.39.63,113.08,113.08,0,0,1-26.22-4.19,255.36,255.36,0,0,1-25-8.24C73,82.53,68.94,80.84,65,78.89c-2-1-4-2-5.89-3.15A56.64,56.64,0,0,1,53.37,72L58,71.13l-.53.83-.26.41-.24.34-1,1.36-1.93,2.62c-1.32,1.72-2.63,3.43-4,5.12q-4,5.07-8.19,10t-8.54,9.71c-2.92,3.18-5.88,6.34-9,9.34Z"/><path class="cls-4" d="M104.78,368.76c17.21,29.91,37.33,57.95,61.44,82.09a220.54,220.54,0,0,0,18.94,17.2c1.7,1.3,3.33,2.69,5.1,3.9l5.24,3.76,5.32,3.77,2.66,1.88c.87.64,1.71,1.34,2.57,2l5.16,4,1.29,1,1.24,1.06,2.48,2.11,2.49,2.11c.83.7,1.67,1.39,2.44,2.16,1.57,1.5,3.17,3,4.76,4.46a246.81,246.81,0,0,1,17.67,19.2c5.53,6.7,10.91,13.47,16.33,20.11s11.14,12.92,17.16,18.9a207.28,207.28,0,0,0,19.39,16.48l5.11,3.8c1.7,1.27,3.45,2.36,5.18,3.55s3.56,2.18,5.34,3.27,3.67,2,5.51,3a117.93,117.93,0,0,0,23.46,8.74c2,.53,4.08.95,6.14,1.39s4.12.79,6.22,1A125.93,125.93,0,0,0,366,600.88c4.23.17,8.47.19,12.72,0s8.49-.56,12.73-1.08,8.46-1.22,12.65-2.11a124.65,124.65,0,0,0,12.47-3.22l.28.64A95.3,95.3,0,0,1,404.71,600a127.51,127.51,0,0,1-12.65,3.41,131.52,131.52,0,0,1-26.14,3,119.85,119.85,0,0,1-26.4-2.55,110.77,110.77,0,0,1-25.24-8.65c-2-1-3.95-2.07-5.92-3.12s-3.85-2.27-5.71-3.5-3.71-2.49-5.47-3.82l-5.2-4c-3.52-2.62-6.77-5.59-10.09-8.47-1.69-1.41-3.24-3-4.81-4.51s-3.16-3.06-4.7-4.62A212.22,212.22,0,0,1,255.48,543c-5.16-7-9.92-14.23-14.93-21.22a171.76,171.76,0,0,0-16.32-19.86q-2.26-2.28-4.57-4.52c-.75-.77-1.57-1.46-2.39-2.16l-2.43-2.11L212.4,491l-1.23-1-1.28-1-5.18-3.83c-.86-.64-1.71-1.29-2.61-1.88l-2.72-1.73-5.44-3.45-5.55-3.4c-1.88-1.11-3.67-2.37-5.51-3.55a176.58,176.58,0,0,1-20.69-16.11,181.18,181.18,0,0,1-18.06-19c-2.78-3.37-5.5-6.78-8.11-10.28s-5.09-7.08-7.55-10.68-4.75-7.3-7-11c-1.13-1.86-2.22-3.74-3.3-5.63s-2.12-3.8-3.14-5.72a197.7,197.7,0,0,1-10.9-23.66Z"/><path class="cls-4" d="M246.15,368.56a100.76,100.76,0,0,1,11.92.19c3.95.23,7.88.67,11.8,1.2s7.82,1.16,11.69,1.94a111,111,0,0,1,11.52,2.78c7.59,2.25,14.93,5.33,22.44,7.68s15.11,4.39,22.78,6.31l5.75,1.5q2.86.78,5.71,1.65c1.91.53,3.76,1.22,5.64,1.85s3.74,1.3,5.59,2l5.57,2.1,5.5,2.27c1.85.72,3.65,1.56,5.45,2.4s3.61,1.65,5.37,2.59,3.52,1.84,5.26,2.8,3.45,2,5.16,3c3.44,2,6.74,4.23,10,6.46s6.45,4.64,9.49,7.23a113.34,113.34,0,0,1,8.81,8l-.42.56c-7-3.73-13.8-7.54-20.73-11.09s-13.88-7-20.91-10.28-14-6.79-21.08-9.94l-21.43-9.5a144.12,144.12,0,0,0-22.16-7.77c-7.6-1.94-15.46-2.82-23.16-4.17q-2.88-.51-5.75-1.1c-1.91-.4-3.81-.83-5.72-1.27-3.8-.87-7.6-1.75-11.4-2.68s-7.6-1.85-11.4-2.87-7.6-2-11.4-3.17Z"/><path class="cls-4" d="M95.33,441.5a50.19,50.19,0,0,1,12.37-6.06,67.72,67.72,0,0,1,13.43-3.13c1.14-.14,2.29-.27,3.44-.32s2.32,0,3.47,0,2.32.16,3.47.26,2.3.23,3.45.45l3.41.55c1.13.22,2.26.46,3.38.65l1.69.27,1.67.35c1.12.21,2.24.41,3.37.58l-1.26.85c.64-3.26,1.23-6.46,1.78-9.72l.86-4.88c.34-1.62.66-3.25,1-4.86s.84-3.2,1.33-4.79,1-3.13,1.58-4.7,1.15-3.11,1.73-4.67l.9-2.32,1-2.27c.69-1.51,1.35-3,2.16-4.5s1.6-2.91,2.44-4.35,1.79-2.81,2.7-4.2,1.87-2.76,2.91-4.06,2.06-2.62,3.11-3.91,2.25-2.46,3.41-3.65l1.74-1.78c.61-.57,1.26-1.11,1.88-1.66,1.26-1.09,2.54-2.15,3.86-3.16l.52.47c-3.16,5.85-6.52,11.25-9.41,17-.36.71-.78,1.38-1.13,2.1l-1.07,2.13c-.7,1.44-1.48,2.81-2.16,4.25s-1.39,2.85-2.12,4.26c-.37.7-.71,1.42-1.05,2.14l-1.06,2.13L163.12,403l-1,2.15c-.67,1.44-1.43,2.85-2.07,4.31l-2,4.37c-.62,1.48-1.28,2.93-2,4.39-2.64,5.84-5.48,11.8-6.77,18.07l-.22,1.05-1-.2a39.74,39.74,0,0,0-13.19-.39c-4.39.56-8.67,1.28-13,1.78s-8.64,1.05-13,1.68-8.75,1.32-13.29,1.9Z"/><path class="cls-4" d="M142,507.21c6.5-1.83,13.05-3.2,19.62-4.49s13.16-2.32,19.77-3.25a195.26,195.26,0,0,1,19.94-1.92c6.68-.32,13.39-.5,20-1.14l-1,.94c1.16-5.56,2.25-11.08,3.25-16.65s1.91-11.17,3-16.75,2.34-11.12,3.82-16.61,3.13-10.94,4.93-16.35a152.32,152.32,0,0,1,6.29-16,130.93,130.93,0,0,1,8.16-15.21A84.74,84.74,0,0,1,260.34,386c4.07-4.14,8.77-7.87,14.17-10l.33.62a51.65,51.65,0,0,0-11.3,12l-2.3,3.4c-.71,1.18-1.4,2.37-2.12,3.53-1.37,2.39-2.7,4.79-3.91,7.27-.64,1.21-1.26,2.44-1.83,3.7s-1.19,2.48-1.73,3.76L250,414.16,248.36,418c-2.1,5.12-4.18,10.26-6.17,15.47s-3.91,10.44-5.68,15.75-3.54,10.62-5.38,15.93-3.54,10.69-5,16.12a148.2,148.2,0,0,0-3.51,16.48l-.12.8-.86.14c-6.6,1-13.14,2.52-19.69,3.87s-13.16,2.39-19.8,3.09-13.28,1.34-19.95,1.75-13.37.69-20.12.52Z"/><path class="cls-4" d="M182.3,582.74q11.77-3,23.58-5.85t23.64-5.57c7.87-1.86,15.78-3.59,23.67-5.39s15.8-3.49,23.71-5.24l-2.17,2c2.18-7.55,4.62-14.92,7.14-22.3s5.12-14.73,8-22c5.56-14.57,11.88-28.85,18.82-42.83q5.28-10.44,11-20.64c3.87-6.78,7.94-13.45,12.25-20s8.91-12.83,13.8-18.92A128.68,128.68,0,0,1,362,399.1l-.37,1c-.63-4.36-1-8.68-1.33-13s-.58-8.69-.69-13q-.48-13,.06-26.13a317.42,317.42,0,0,1,6.38-52q2.78-12.84,6.69-25.41c.66-2.09,1.39-4.16,2.09-6.24l1.05-3.11,1.16-3.08c.77-2.05,1.52-4.12,2.33-6.16l2.53-6.08c.81-2,1.75-4,2.67-6s1.8-4,2.78-6c2-3.92,3.9-7.88,6.11-11.69a231.84,231.84,0,0,1,14-22.37l-.23,4c-2-3.8-3.72-7.46-5.4-11.24s-3.26-7.55-4.72-11.38q-4.4-11.51-7.89-23.29a317.46,317.46,0,0,1-10.32-48c-1.12-8.11-1.87-16.26-2.34-24.41-.18-4.09-.39-8.16-.4-12.25s0-8.17.07-12.24c.3-8.16.78-16.3,1.82-24.39s2.3-16.11,3.93-24.07l.69.12c-.91,8.05-1.82,16.09-2.18,24.16S380,52.92,380.08,61s.65,16.09,1.44,24.1,1.79,16,3.18,23.9,2.95,15.79,4.83,23.6,4.08,15.52,6.46,23.18S401,171,404,178.4c1.5,3.72,3,7.42,4.62,11.07s3.33,7.32,5.1,10.69l1.09,2.07-1.32,1.89a260.48,260.48,0,0,0-25.44,44.42l-2.56,5.89c-.82,2-1.58,4-2.37,6l-1.18,3-1.08,3c-.71,2-1.46,4-2.14,6.07-2.74,8.12-5.07,16.38-7.18,24.71a324.62,324.62,0,0,0-8.37,50.92c-.69,8.59-1.07,17.22-1,25.86a213.24,213.24,0,0,0,1.58,25.8l.08.61-.46.38a111.47,111.47,0,0,0-15.88,16.68c-1.23,1.49-2.39,3-3.52,4.59s-2.28,3.11-3.34,4.73-2.18,3.18-3.21,4.81l-3.09,4.91c-4,6.63-7.66,13.41-11.17,20.29s-6.76,13.9-9.89,21-6.11,14.2-9.07,21.33L302,504.44l-2.13,5.39c-1.42,3.59-2.84,7.18-4.21,10.8-2.72,7.23-5.48,14.45-8.05,21.74s-5.07,14.63-7.42,21.94l-.54,1.67-1.62.31c-7.95,1.51-15.89,3.1-23.85,4.56s-15.9,3-23.87,4.4-15.94,2.86-23.92,4.22-16,2.7-24,3.95Z"/><path class="cls-4" d="M357.57,210.22a28.14,28.14,0,0,1,7.85-3.84c1.35-.43,2.71-.8,4.08-1.09a19,19,0,0,1,4.19-.5c2.84,0,5.79.67,8.58.46a27.31,27.31,0,0,0,8.21-2c1.35-.5,2.7-1,4.06-1.45s2.75-.69,4.14-1a51.75,51.75,0,0,1,8.39-1.31c1.43-.06,2.85-.07,4.28,0s2.88.22,4.31.41a38.06,38.06,0,0,1,4.32.89,23.4,23.4,0,0,1,4.21,1.61l-.07.69A92.64,92.64,0,0,1,407.74,207a78.52,78.52,0,0,1-8.29.44c-1.39,0-2.78.07-4.19,0s-2.83-.21-4.25-.34a25.13,25.13,0,0,0-8.4.42c-2.73.62-5.3,2.18-8,3.07a19.26,19.26,0,0,1-4.09.88,38.8,38.8,0,0,1-4.18.32,29.87,29.87,0,0,1-8.66-.85Z"/><path class="cls-4" d="M244.72,644.31c8.3-3.3,16.59-6.46,24.84-9.67s16.43-6.52,24.53-10l12.13-5.17q6.09-2.55,12-5.35c8-3.73,15.69-8.18,22.09-14.18l-.26.41c2.27-6.36,4.64-12.65,6.86-19s4.52-12.73,6.94-19,5.15-12.5,8-18.65,5.79-12.24,8.88-18.27a244.61,244.61,0,0,1,21.7-34.45c1.05-1.34,2.07-2.7,3.14-4l3.24-4c2.26-2.55,4.48-5.14,6.89-7.56a103.44,103.44,0,0,1,15.47-13.28l.45.53A178.14,178.14,0,0,0,408.79,478c-2,2.63-3.92,5.37-5.82,8.1l-2.8,4.12c-.93,1.38-1.8,2.8-2.7,4.19q-5.4,8.39-10.35,17.06t-9.83,17.4q-4.89,8.73-9.49,17.64l-9.07,17.91c-3.06,6-6.07,12-8.92,18s-5.42,12.3-7.73,18.58l-.09.24-.17.17a127.48,127.48,0,0,1-10.36,8.67q-5.37,4.11-11.06,7.78a141.91,141.91,0,0,1-23.88,12.53,242.77,242.77,0,0,1-25.41,8.76A194.83,194.83,0,0,1,244.89,645Z"/></g></svg>