<svg id="Calque_1" data-name="Calque 1" xmlns="http://www.w3.org/2000/svg" viewBox="0 0 230.13 218.96"><defs><style>.cls-1{fill:#fff;}</style></defs><title>sp-spiderweb</title><path class="cls-1" d="M128.61,142.75,96.14,108l-32.3-34.9c-10.79-11.62-21.46-23.34-32.2-35L-.51,3l1.67-1L15.3,45.56c4.71,14.51,9.46,29,14.09,43.54l14,43.57L57.12,176.3,42.44,133,28,89.57c-4.86-14.46-9.59-29-14.37-43.44L-.73,2.67A1,1,0,0,1-.09,1.42a1,1,0,0,1,1,.27L33,36.84C43.65,48.57,54.38,60.25,65,72l31.89,35.29Z"/><polygon class="cls-1" points="4.68 192.96 -0.78 2.79 1.22 2.74 4.68 192.96"/><polygon class="cls-1" points="183.31 4.56 -0.02 1.99 0.02 -0.01 183.31 4.56"/><polygon class="cls-1" points="172.38 65.42 -0.13 3.3 0.56 1.42 172.38 65.42"/><path class="cls-1" d="M.22,70.53a12,12,0,0,1,4-4.1,16.07,16.07,0,0,1,5.34-2.21,20.86,20.86,0,0,1,5.79-.4c1,.07,1.93.22,2.89.33l2.84.62-.86.66a22.6,22.6,0,0,1,1.62-8.52,14.23,14.23,0,0,1,5.52-6.85,14.07,14.07,0,0,1,4.14-1.74,18.81,18.81,0,0,1,4.41-.44,30.56,30.56,0,0,1,8.53,1.51l-1.27,1.15a33,33,0,0,1-.4-8.8A24.06,24.06,0,0,1,45,33.18a17.29,17.29,0,0,1,5.79-6.76A21.12,21.12,0,0,1,59,23.25l-.48,1.05a23,23,0,0,1-2.15-5.85A18.15,18.15,0,0,1,56,12.26a12.66,12.66,0,0,1,2.15-5.77,14.61,14.61,0,0,1,4.45-4.13,15.52,15.52,0,0,0-4.06,4.38,12.14,12.14,0,0,0-1.71,5.6,18.85,18.85,0,0,0,.68,5.83,23.23,23.23,0,0,0,2.25,5.41.73.73,0,0,1-.27,1,.68.68,0,0,1-.2.07h0a19.65,19.65,0,0,0-7.52,3.17A15.54,15.54,0,0,0,46.66,34a23,23,0,0,0-2,7.91,32.3,32.3,0,0,0,.4,8.23v0a1,1,0,0,1-.81,1.16,1.05,1.05,0,0,1-.47,0,28.65,28.65,0,0,0-8-1.47,13.8,13.8,0,0,0-7.55,1.78,12.83,12.83,0,0,0-5,5.95,21.51,21.51,0,0,0-1.76,7.86v0a.71.71,0,0,1-.72.67l-.15,0L18,65.37c-.92-.15-1.83-.34-2.75-.45a26,26,0,0,0-2.78-.13c-.46,0-.93,0-1.39,0L9.65,65A15.16,15.16,0,0,0,4.4,66.8,12.55,12.55,0,0,0,.22,70.53Z"/><path class="cls-1" d="M.22,111.38a24.51,24.51,0,0,1,5-8.16,20.19,20.19,0,0,1,8-5.36,21.33,21.33,0,0,1,9.64-1,34.51,34.51,0,0,1,9.39,2.46l-.71.43a28.37,28.37,0,0,1,1.48-6.09A29.56,29.56,0,0,1,35.74,88a24.8,24.8,0,0,1,9-8.65A27.38,27.38,0,0,1,50.58,77a32.48,32.48,0,0,1,6.19-1,46.94,46.94,0,0,1,12.41.9l-.89.75a67.75,67.75,0,0,1,1.29-13,52.92,52.92,0,0,1,4-12.49,31.72,31.72,0,0,1,7.75-10.62,26,26,0,0,1,5.58-3.58,27.56,27.56,0,0,1,6.32-2l-.31.84a27.48,27.48,0,0,1-4.32-8.68,22.82,22.82,0,0,1-.79-9.61A21,21,0,0,1,89,13.79a22.52,22.52,0,0,1,2.17-4.3,31.54,31.54,0,0,1,6.35-7.13,32.92,32.92,0,0,0-6,7.32,22.21,22.21,0,0,0-2,4.28,19.67,19.67,0,0,0-1,4.59,22.83,22.83,0,0,0,1,9.29,26.94,26.94,0,0,0,4.3,8.27.54.54,0,0,1-.09.75.88.88,0,0,1-.22.1,26.07,26.07,0,0,0-6,2,25.24,25.24,0,0,0-5.25,3.49,30.52,30.52,0,0,0-7.36,10.23A51.92,51.92,0,0,0,71,64.85a68.25,68.25,0,0,0-1.2,12.73v0a.76.76,0,0,1-.75.75l-.14,0a45.57,45.57,0,0,0-12-1,31.27,31.27,0,0,0-5.93.92,26.77,26.77,0,0,0-5.54,2.2,23.44,23.44,0,0,0-8.58,8.15A29.13,29.13,0,0,0,32.6,99.82v0a.5.5,0,0,1-.58.43l-.13,0a33.58,33.58,0,0,0-9.09-2.57,21.5,21.5,0,0,0-9.33.78,19.78,19.78,0,0,0-8,5A25.26,25.26,0,0,0,.22,111.38Z"/><path class="cls-1" d="M.22,153.69a37,37,0,0,1,9.94-8.5,33.39,33.39,0,0,1,12.36-4.34,31,31,0,0,1,6.6-.23c1.1,0,2.19.25,3.28.38s2.17.39,3.23.71a47.59,47.59,0,0,1,12.1,5.17l-.45.21a40.58,40.58,0,0,1,2.82-8.7,42.63,42.63,0,0,1,4.56-7.91,38.38,38.38,0,0,1,13.81-11.8,44.47,44.47,0,0,1,8.59-3.16l2.25-.47,1.12-.23,1.13-.16,2.27-.31,2.29-.16a71.57,71.57,0,0,1,18.18,1.39l-.57.6a58.52,58.52,0,0,1-1.27-9.56,73.52,73.52,0,0,1,.08-9.62,62.67,62.67,0,0,1,4.25-18.71,57.1,57.1,0,0,1,4.39-8.56,56.42,56.42,0,0,1,5.89-7.61,60.1,60.1,0,0,1,15.25-11.59l-.12.43a47,47,0,0,1-5.08-12.63,36.69,36.69,0,0,1-.91-13.56,32,32,0,0,1,1.59-6.63,33.25,33.25,0,0,1,3-6.08,38.31,38.31,0,0,1,9.43-9.7A38,38,0,0,0,131,12.17a32.11,32.11,0,0,0-2.93,6.08,31.41,31.41,0,0,0-1.48,6.57,38,38,0,0,0,1,13.38,47.21,47.21,0,0,0,5.08,12.44h0a.33.33,0,0,1-.11.43h0a59.47,59.47,0,0,0-15,11.53,56,56,0,0,0-5.76,7.53,57,57,0,0,0-4.28,8.47,61.55,61.55,0,0,0-4.1,18.47,69.78,69.78,0,0,0,1.23,18.87v0a.48.48,0,0,1-.38.58.41.41,0,0,1-.19,0,70.73,70.73,0,0,0-17.94-1.46l-2.25.15-2.23.29-1.12.14-1.1.22-2.21.46a43.54,43.54,0,0,0-8.43,3,37.62,37.62,0,0,0-13.61,11.5,42.16,42.16,0,0,0-4.53,7.77,39.85,39.85,0,0,0-2.81,8.53h0a.32.32,0,0,1-.36.24l-.1,0a46.85,46.85,0,0,0-11.93-5.18c-1-.32-2.12-.47-3.18-.71s-2.14-.34-3.23-.39a30.06,30.06,0,0,0-6.5.13,32.73,32.73,0,0,0-12.32,4.12A36.87,36.87,0,0,0,.22,153.69Z"/></svg>