<svg id="Calque_1" data-name="Calque 1" xmlns="http://www.w3.org/2000/svg" viewBox="0 0 76.41 52.63"><defs><style>.cls-1{fill:#fac903;}.cls-2{fill:#a90505;}</style></defs><title>blogme</title><path class="cls-1" d="M10.25,50.44A16.41,16.41,0,0,1,2.8,43.31,17.93,17.93,0,0,1,1,32.91,32.36,32.36,0,0,1,4,22.74a31.6,31.6,0,0,1,6.08-8.82,23.48,23.48,0,0,1,4.28-3.44,15.4,15.4,0,0,1,5.3-2.17,9.09,9.09,0,0,1,3.13-.07A6.59,6.59,0,0,1,26,9.65,6.19,6.19,0,0,1,27.13,11a8.19,8.19,0,0,1,.75,1.43,14.25,14.25,0,0,1,.83,2.82A43.9,43.9,0,0,1,29.07,26a99.61,99.61,0,0,1-1.38,10.45A2,2,0,0,1,23.82,36a42.19,42.19,0,0,1,.89-7.8,16.82,16.82,0,0,1,1.36-4,7.2,7.2,0,0,1,1.59-2.06,4.37,4.37,0,0,1,3.11-1.09,5.75,5.75,0,0,1,1.49.32,6.2,6.2,0,0,1,1.31.72,5.93,5.93,0,0,1,1.73,2.13,11.62,11.62,0,0,1,1.06,4.35,30.27,30.27,0,0,1-.69,8,1.92,1.92,0,0,1-3.8-.33h0a30.14,30.14,0,0,1,.24-4.95,16.26,16.26,0,0,1,1.36-5.06,5.93,5.93,0,0,1,2.16-2.51,4.37,4.37,0,0,1,1.86-.62,4.09,4.09,0,0,1,.93,0,5,5,0,0,1,.81.14,5.13,5.13,0,0,1,1.59.66,3.84,3.84,0,0,1,1.41,1.52,5.75,5.75,0,0,1,.41,3.25,12.49,12.49,0,0,0-.26,4,1.8,1.8,0,0,0,.59,1,1.13,1.13,0,0,0,1,.09,6.42,6.42,0,0,0,3-2.12A6.75,6.75,0,0,0,48,30a2.28,2.28,0,0,0,.25-1.27.44.44,0,0,0-.16-.24.86.86,0,0,0-.34-.16s-.07,0-.19.07a1.55,1.55,0,0,0-.38.52,4.64,4.64,0,0,0,0,3.55,2.88,2.88,0,0,0,2.72,1.83,6.51,6.51,0,0,0,2-.25c.73-.17,1.46-.37,2.19-.58,1.46-.44,2.89-1,4.37-1.51a20.66,20.66,0,0,1,4.62-1.13,19.59,19.59,0,0,1,4.72.07,44.29,44.29,0,0,1,4.6.83,40.24,40.24,0,0,0-4.63-.35,20.27,20.27,0,0,0-4.55.35c-3,.56-5.62,2.17-8.6,3.28-.74.27-1.49.54-2.25.77a8.81,8.81,0,0,1-2.54.48,5.21,5.21,0,0,1-2.75-.69,5.13,5.13,0,0,1-2-2.15,6.8,6.8,0,0,1-.67-2.7,6.53,6.53,0,0,1,.44-2.79,4,4,0,0,1,.92-1.4,2.82,2.82,0,0,1,1.89-.81,3.42,3.42,0,0,1,1.85.54,3.17,3.17,0,0,1,1.26,1.55,4.7,4.7,0,0,1-.2,3.26,9.6,9.6,0,0,1-1.37,2.36,11,11,0,0,1-1.88,1.91,7.84,7.84,0,0,1-2.54,1.38,4.88,4.88,0,0,1-1.7.2,4,4,0,0,1-1.81-.57,4.91,4.91,0,0,1-2.05-2.74c-.62-2.14-.1-3.9,0-5.26a2.69,2.69,0,0,0-.09-1.3.53.53,0,0,0-.17-.14,1.92,1.92,0,0,0-.56-.2c-.54-.1-.66-.06-.87.08a2.42,2.42,0,0,0-.76,1,13.21,13.21,0,0,0-.91,3.91,35.18,35.18,0,0,0-.15,4.34l-3.8-.34a26.5,26.5,0,0,0,.55-6.84A7.76,7.76,0,0,0,31.79,26a1.55,1.55,0,0,0-1.23-1c-.11,0-.1,0-.3.15a3,3,0,0,0-.65.91,12.74,12.74,0,0,0-1,3,38.82,38.82,0,0,0-.85,7l-3.87-.41a95.61,95.61,0,0,0,1.39-10,40.17,40.17,0,0,0-.06-9.81c-.26-1.5-.74-3-1.48-3.6a4.35,4.35,0,0,0-3.5-.72A16.44,16.44,0,0,0,12.1,16a30.76,30.76,0,0,0-6,7.81,32.24,32.24,0,0,0-3.39,9.34,17.09,17.09,0,0,0,.94,9.74A16.6,16.6,0,0,0,10.25,50.44Z"/><path class="cls-2" d="M12.64,47.12A16.39,16.39,0,0,1,5.19,40a18,18,0,0,1-1.8-10.41,32.36,32.36,0,0,1,3-10.17,31.39,31.39,0,0,1,6.08-8.82,23.48,23.48,0,0,1,4.28-3.44A15.54,15.54,0,0,1,22.05,5a9.14,9.14,0,0,1,3.14-.07,6.3,6.3,0,0,1,4.33,2.74,11,11,0,0,1,.75,1.43,15.73,15.73,0,0,1,.83,2.82,44,44,0,0,1,.35,10.77,99.75,99.75,0,0,1-1.37,10.44,2,2,0,0,1-3.88-.42,43,43,0,0,1,.89-7.79,16.36,16.36,0,0,1,1.37-4A7.15,7.15,0,0,1,30,18.83a4.4,4.4,0,0,1,3.11-1.09,5.52,5.52,0,0,1,1.5.33,5.86,5.86,0,0,1,1.3.71,6.07,6.07,0,0,1,1.74,2.13,11.42,11.42,0,0,1,1.05,4.36,30.24,30.24,0,0,1-.69,8,1.92,1.92,0,0,1-3.8-.33h0A31.28,31.28,0,0,1,34.49,28a16.29,16.29,0,0,1,1.37-5.06A6,6,0,0,1,38,20.38a4.37,4.37,0,0,1,1.86-.62,4.18,4.18,0,0,1,.94,0,5.42,5.42,0,0,1,.81.14,5.34,5.34,0,0,1,1.58.66,3.78,3.78,0,0,1,1.41,1.52A5.66,5.66,0,0,1,45,25.35c-.21,1.7-.51,3.08-.25,4a1.8,1.8,0,0,0,.59,1,1.13,1.13,0,0,0,1,.09,6.4,6.4,0,0,0,3-2.12,6.49,6.49,0,0,0,1-1.6,2.15,2.15,0,0,0,.24-1.27.36.36,0,0,0-.16-.24.84.84,0,0,0-.33-.16s-.07,0-.2.07a1.55,1.55,0,0,0-.37.52,4.64,4.64,0,0,0,0,3.55A2.9,2.9,0,0,0,52.21,31a6.51,6.51,0,0,0,2-.25c.74-.17,1.47-.37,2.2-.58,1.45-.44,2.88-1,4.36-1.51a20.73,20.73,0,0,1,4.63-1.12,19.1,19.1,0,0,1,4.72.06,41.64,41.64,0,0,1,4.59.84A42.27,42.27,0,0,0,70.13,28a20.36,20.36,0,0,0-4.56.35c-3,.56-5.61,2.17-8.6,3.28-.74.27-1.49.54-2.25.77a8.68,8.68,0,0,1-2.53.48,5.22,5.22,0,0,1-2.76-.69,5.17,5.17,0,0,1-2-2.15,7,7,0,0,1-.68-2.7,6.53,6.53,0,0,1,.44-2.79,4.18,4.18,0,0,1,.92-1.4,2.86,2.86,0,0,1,1.9-.81,3.38,3.38,0,0,1,1.84.54,3.17,3.17,0,0,1,1.26,1.55,4.7,4.7,0,0,1-.2,3.26,9.3,9.3,0,0,1-1.37,2.36A10.3,10.3,0,0,1,49.71,32a7.63,7.63,0,0,1-2.54,1.38,4.85,4.85,0,0,1-1.69.2A4,4,0,0,1,43.66,33a5,5,0,0,1-2-2.74c-.61-2.14-.09-3.89,0-5.25a2.61,2.61,0,0,0-.09-1.31c0-.05,0-.07-.16-.14a2,2,0,0,0-.57-.2c-.53-.1-.66-.06-.87.08a2.48,2.48,0,0,0-.76,1,13.06,13.06,0,0,0-.91,3.9,33.3,33.3,0,0,0-.14,4.34l-3.8-.34a26.48,26.48,0,0,0,.54-6.84,7.82,7.82,0,0,0-.66-2.85,1.56,1.56,0,0,0-1.24-1c-.1,0-.1,0-.3.15a3.4,3.4,0,0,0-.64.91,13.2,13.2,0,0,0-1,3,39.74,39.74,0,0,0-.85,7l-3.87-.42a98.37,98.37,0,0,0,1.4-10,41.19,41.19,0,0,0-.06-9.81A6.51,6.51,0,0,0,26.09,9a4.32,4.32,0,0,0-3.49-.72,16.44,16.44,0,0,0-8.11,4.44,30.79,30.79,0,0,0-6,7.81,32.83,32.83,0,0,0-3.39,9.34,17.09,17.09,0,0,0,1,9.74A16.55,16.55,0,0,0,12.64,47.12Z"/></svg>